<svg xmlns="http://www.w3.org/2000/svg" width="64" height="64" viewBox="0 0 64 64" version="1.1"><path d="M 10 13 L 10 16 17 16 L 24 16 24 13 L 24 10 17 10 L 10 10 10 13 M 40 13 L 40 16 47 16 L 54 16 54 13 L 54 10 47 10 L 40 10 40 13 M 20.653 45.119 C 20.231 46.010, 20.024 49.160, 20.193 52.119 L 20.500 57.500 32 57.500 L 43.500 57.500 43.807 52.119 C 44.251 44.333, 42.711 42.050, 42.040 49.500 L 41.500 55.500 32 55.500 L 22.500 55.500 21.960 49.500 C 21.614 45.656, 21.144 44.082, 20.653 45.119 M 26 48 C 26 48.556, 28.667 49, 32 49 C 35.333 49, 38 48.556, 38 48 C 38 47.444, 35.333 47, 32 47 C 28.667 47, 26 47.444, 26 48 M 26 52 C 26 52.556, 28.667 53, 32 53 C 35.333 53, 38 52.556, 38 52 C 38 51.444, 35.333 51, 32 51 C 28.667 51, 26 51.444, 26 52" stroke="none" fill="#c063fc" fill-rule="evenodd"/><path d="M 6.425 7.334 C 6.129 8.106, 6.024 11.160, 6.193 14.119 C 6.493 19.385, 6.569 19.507, 9.750 19.813 C 11.704 20.002, 13 20.680, 13 21.514 C 13 22.276, 13.636 23.260, 14.413 23.700 C 15.191 24.140, 15.978 25.850, 16.163 27.500 C 16.485 30.368, 16.733 30.513, 21.804 30.804 C 25.424 31.012, 27.726 31.726, 29.054 33.054 C 31.408 35.408, 31.593 38, 29.406 38 C 28.530 38, 27.584 38.875, 27.304 39.944 C 26.966 41.237, 25.767 41.991, 23.725 42.194 C 22.036 42.362, 20.507 42.950, 20.327 43.500 C 20.121 44.129, 24.449 44.500, 32 44.500 C 39.551 44.500, 43.879 44.129, 43.673 43.500 C 43.493 42.950, 41.964 42.362, 40.275 42.194 C 38.233 41.991, 37.034 41.237, 36.696 39.944 C 36.416 38.875, 35.470 38, 34.594 38 C 32.407 38, 32.592 35.408, 34.946 33.054 C 36.274 31.726, 38.576 31.012, 42.196 30.804 C 47.267 30.513, 47.515 30.368, 47.837 27.500 C 48.022 25.850, 48.809 24.140, 49.587 23.700 C 50.364 23.260, 51 22.276, 51 21.514 C 51 20.680, 52.296 20.002, 54.250 19.813 L 57.500 19.500 57.500 13 L 57.500 6.500 47 6.500 L 36.500 6.500 36.500 13 L 36.500 19.500 39.750 19.813 C 41.704 20.002, 43 20.680, 43 21.514 C 43 22.276, 43.721 23.304, 44.603 23.798 C 45.484 24.291, 46.043 25.551, 45.844 26.597 C 45.357 29.161, 37.113 29.954, 35.777 27.566 C 34.642 25.538, 29.358 25.538, 28.223 27.566 C 26.887 29.954, 18.643 29.161, 18.156 26.597 C 17.957 25.551, 18.516 24.291, 19.397 23.798 C 20.279 23.304, 21 22.276, 21 21.514 C 21 20.680, 22.296 20.002, 24.250 19.813 L 27.500 19.500 27.500 13 L 27.500 6.500 17.232 6.215 C 9.143 5.990, 6.850 6.228, 6.425 7.334 M 8.414 9.364 C 8.109 10.159, 8.003 12.315, 8.180 14.155 L 8.500 17.500 17 17.500 L 25.500 17.500 25.500 13 L 25.500 8.500 17.234 8.209 C 10.753 7.981, 8.849 8.231, 8.414 9.364 M 38.414 9.364 C 38.109 10.159, 38.003 12.315, 38.180 14.155 L 38.500 17.500 47 17.500 L 55.500 17.500 55.500 13 L 55.500 8.500 47.234 8.209 C 40.753 7.981, 38.849 8.231, 38.414 9.364 M 15.800 21.200 C 16.733 22.133, 17.267 22.133, 18.200 21.200 C 19.133 20.267, 18.867 20, 17 20 C 15.133 20, 14.867 20.267, 15.800 21.200 M 45.800 21.200 C 46.733 22.133, 47.267 22.133, 48.200 21.200 C 49.133 20.267, 48.867 20, 47 20 C 45.133 20, 44.867 20.267, 45.800 21.200 M 31 30 C 31 30.550, 31.450 31, 32 31 C 32.550 31, 33 30.550, 33 30 C 33 29.450, 32.550 29, 32 29 C 31.450 29, 31 29.450, 31 30 M 29.500 41 C 29.138 41.585, 30.176 42, 32 42 C 33.824 42, 34.862 41.585, 34.500 41 C 34.160 40.450, 33.035 40, 32 40 C 30.965 40, 29.840 40.450, 29.500 41" stroke="none" fill="#5b52fc" fill-rule="evenodd"/></svg>