<?xml version="1.0" encoding="UTF-8"?>
<svg xmlns="http://www.w3.org/2000/svg" xmlns:xlink="http://www.w3.org/1999/xlink" width="100px" height="100px" viewBox="0 0 100 100" version="1.1">
<g id="surface1">
<path style=" stroke:none;fill-rule:nonzero;fill:rgb(29.803923%,50.980395%,76.47059%);fill-opacity:1;" d="M 12.761719 71.859375 C 12.65625 71.859375 12.554688 71.878906 12.464844 71.914062 C 12.382812 71.949219 12.308594 71.996094 12.253906 72.054688 C 12.199219 72.109375 12.160156 72.167969 12.128906 72.242188 C 12.105469 72.300781 12.09375 72.355469 12.09375 72.421875 C 12.09375 72.476562 12.101562 72.523438 12.121094 72.566406 C 12.148438 72.628906 12.1875 72.679688 12.234375 72.726562 C 12.289062 72.78125 12.359375 72.820312 12.441406 72.851562 C 12.632812 72.921875 12.886719 72.921875 13.074219 72.851562 C 13.15625 72.820312 13.226562 72.78125 13.28125 72.726562 C 13.328125 72.679688 13.367188 72.628906 13.394531 72.566406 C 13.410156 72.523438 13.421875 72.476562 13.421875 72.421875 C 13.421875 72.355469 13.410156 72.300781 13.386719 72.242188 C 13.355469 72.171875 13.316406 72.109375 13.261719 72.058594 C 13.203125 71.996094 13.132812 71.949219 13.050781 71.914062 C 12.964844 71.878906 12.867188 71.859375 12.761719 71.859375 Z M 12.761719 73.929688 C 12.570312 73.929688 12.390625 73.898438 12.222656 73.839844 C 12.042969 73.773438 11.882812 73.675781 11.75 73.546875 C 11.617188 73.414062 11.503906 73.253906 11.425781 73.074219 C 11.335938 72.875 11.292969 72.65625 11.292969 72.421875 C 11.292969 72.1875 11.335938 71.960938 11.425781 71.753906 C 11.507812 71.558594 11.617188 71.390625 11.757812 71.25 C 11.886719 71.117188 12.042969 71.011719 12.21875 70.941406 C 12.558594 70.796875 12.964844 70.796875 13.300781 70.941406 C 13.472656 71.011719 13.628906 71.117188 13.761719 71.25 C 13.898438 71.390625 14.007812 71.558594 14.089844 71.753906 C 14.179688 71.960938 14.222656 72.1875 14.222656 72.421875 C 14.222656 72.65625 14.179688 72.875 14.089844 73.074219 C 14.007812 73.253906 13.898438 73.414062 13.765625 73.546875 C 13.632812 73.675781 13.472656 73.773438 13.296875 73.839844 C 13.132812 73.898438 12.949219 73.929688 12.761719 73.929688 Z M 12.761719 73.929688 "/>
<path style=" stroke:none;fill-rule:nonzero;fill:rgb(29.803923%,50.980395%,76.47059%);fill-opacity:1;" d="M 17.195312 70.554688 C 17.058594 70.554688 16.929688 70.578125 16.816406 70.628906 C 16.703125 70.671875 16.609375 70.734375 16.535156 70.8125 C 16.460938 70.886719 16.40625 70.96875 16.367188 71.066406 C 16.332031 71.152344 16.3125 71.238281 16.3125 71.332031 C 16.3125 71.417969 16.328125 71.492188 16.355469 71.558594 C 16.394531 71.640625 16.445312 71.714844 16.515625 71.78125 C 16.585938 71.851562 16.679688 71.90625 16.789062 71.945312 C 17.03125 72.035156 17.355469 72.035156 17.59375 71.949219 C 17.699219 71.90625 17.792969 71.851562 17.863281 71.78125 C 17.933594 71.714844 17.984375 71.640625 18.023438 71.558594 C 18.050781 71.492188 18.066406 71.417969 18.066406 71.332031 C 18.066406 71.238281 18.046875 71.152344 18.011719 71.066406 C 17.972656 70.96875 17.917969 70.886719 17.84375 70.8125 C 17.769531 70.734375 17.675781 70.671875 17.566406 70.625 C 17.453125 70.578125 17.328125 70.554688 17.195312 70.554688 Z M 17.195312 73.039062 C 16.972656 73.039062 16.761719 73.003906 16.570312 72.933594 C 16.363281 72.859375 16.179688 72.746094 16.03125 72.597656 C 15.875 72.449219 15.75 72.269531 15.660156 72.066406 C 15.5625 71.84375 15.511719 71.597656 15.511719 71.332031 C 15.511719 71.070312 15.5625 70.816406 15.660156 70.582031 C 15.753906 70.359375 15.878906 70.167969 16.035156 70.007812 C 16.1875 69.855469 16.367188 69.734375 16.566406 69.652344 C 16.960938 69.488281 17.429688 69.488281 17.816406 69.652344 C 18.015625 69.734375 18.191406 69.855469 18.34375 70.007812 C 18.5 70.167969 18.625 70.359375 18.71875 70.578125 C 18.816406 70.816406 18.867188 71.066406 18.867188 71.332031 C 18.867188 71.59375 18.816406 71.839844 18.71875 72.0625 C 18.628906 72.269531 18.503906 72.449219 18.347656 72.597656 C 18.199219 72.746094 18.019531 72.859375 17.816406 72.933594 C 17.625 73.003906 17.414062 73.039062 17.195312 73.039062 Z M 17.195312 73.039062 "/>
<path style=" stroke:none;fill-rule:nonzero;fill:rgb(29.803923%,50.980395%,76.47059%);fill-opacity:1;" d="M 22.125 69.207031 C 21.953125 69.207031 21.792969 69.238281 21.644531 69.300781 C 21.503906 69.359375 21.382812 69.441406 21.285156 69.542969 C 21.1875 69.636719 21.117188 69.746094 21.0625 69.875 C 21.011719 69.992188 20.988281 70.113281 20.988281 70.246094 C 20.988281 70.363281 21.007812 70.46875 21.050781 70.566406 C 21.101562 70.679688 21.171875 70.777344 21.261719 70.867188 C 21.355469 70.957031 21.476562 71.03125 21.617188 71.082031 C 21.925781 71.191406 22.328125 71.191406 22.625 71.082031 L 22.628906 71.082031 C 22.765625 71.03125 22.882812 70.957031 22.980469 70.867188 C 23.070312 70.777344 23.140625 70.679688 23.1875 70.566406 C 23.230469 70.46875 23.253906 70.363281 23.253906 70.246094 C 23.253906 70.113281 23.226562 69.992188 23.179688 69.875 C 23.125 69.746094 23.050781 69.636719 22.957031 69.539062 C 22.859375 69.441406 22.738281 69.359375 22.597656 69.300781 C 22.453125 69.238281 22.296875 69.207031 22.125 69.207031 Z M 22.125 72.191406 C 21.867188 72.191406 21.621094 72.152344 21.398438 72.070312 C 21.160156 71.984375 20.953125 71.851562 20.777344 71.683594 C 20.601562 71.511719 20.457031 71.304688 20.355469 71.070312 C 20.242188 70.820312 20.1875 70.542969 20.1875 70.246094 C 20.1875 69.945312 20.242188 69.65625 20.355469 69.390625 C 20.460938 69.136719 20.605469 68.917969 20.785156 68.734375 C 20.960938 68.558594 21.164062 68.421875 21.398438 68.324219 C 21.855469 68.136719 22.398438 68.136719 22.847656 68.324219 C 23.078125 68.421875 23.28125 68.5625 23.453125 68.734375 C 23.632812 68.917969 23.78125 69.136719 23.886719 69.390625 C 23.996094 69.65625 24.054688 69.945312 24.054688 70.246094 C 24.054688 70.542969 23.996094 70.820312 23.886719 71.070312 C 23.78125 71.304688 23.640625 71.511719 23.464844 71.683594 C 23.289062 71.851562 23.082031 71.980469 22.847656 72.066406 C 22.628906 72.152344 22.382812 72.191406 22.125 72.191406 Z M 22.125 72.191406 "/>
<path style=" stroke:none;fill-rule:nonzero;fill:rgb(29.803923%,50.980395%,76.47059%);fill-opacity:1;" d="M 24.855469 52.53125 C 24.734375 52.683594 24.550781 52.722656 24.398438 52.628906 C 24.242188 52.535156 24.15625 52.324219 24.171875 52.109375 C 24.226562 51.515625 24.105469 51.109375 23.808594 50.871094 C 23.253906 50.429688 22.125 50.601562 21.339844 51.246094 C 21.058594 51.476562 20.597656 51.960938 20.660156 52.589844 C 20.691406 52.871094 20.535156 53.128906 20.316406 53.164062 C 20.097656 53.199219 19.894531 53.003906 19.867188 52.722656 C 19.667969 50.773438 18.851562 50.160156 18.199219 49.988281 C 17.121094 49.707031 15.839844 50.449219 15.277344 51.675781 C 14.796875 52.71875 14.953125 53.914062 15.710938 55.042969 C 15.800781 55.179688 15.828125 55.367188 15.785156 55.539062 C 15.742188 55.710938 15.628906 55.839844 15.492188 55.878906 C 12.660156 56.675781 11.773438 58.382812 11.886719 59.714844 C 12.019531 61.289062 13.601562 62.960938 16.273438 62.960938 C 16.382812 62.960938 16.484375 63.015625 16.558594 63.113281 C 16.632812 63.210938 16.675781 63.339844 16.675781 63.476562 C 16.667969 64.164062 16.84375 64.699219 17.085938 65.117188 L 29.09375 65.117188 C 30.835938 65.117188 32.261719 63.292969 32.261719 61.0625 L 32.261719 51.933594 C 30.355469 49.9375 27.246094 49.484375 24.855469 52.53125 Z M 24.855469 52.53125 "/>
<path style=" stroke:none;fill-rule:nonzero;fill:rgb(29.803923%,50.980395%,76.47059%);fill-opacity:1;" d="M 11.089844 59.824219 C 10.945312 58.160156 11.847656 56.09375 14.726562 55.066406 C 14.082031 53.773438 14.023438 52.378906 14.585938 51.15625 C 15.324219 49.550781 16.945312 48.613281 18.359375 48.984375 C 19.246094 49.214844 19.925781 49.933594 20.320312 51.019531 C 20.476562 50.789062 20.675781 50.574219 20.90625 50.382812 C 21.816406 49.636719 23.289062 49.246094 24.230469 50 C 24.558594 50.261719 24.785156 50.636719 24.898438 51.101562 C 27.324219 48.621094 30.234375 48.941406 32.261719 50.660156 L 32.261719 44.59375 C 32.261719 42.363281 30.835938 40.539062 29.09375 40.539062 L 11.214844 40.539062 C 9.472656 40.539062 8.046875 42.363281 8.046875 44.59375 L 8.046875 61.0625 C 8.046875 63.292969 9.472656 65.117188 11.214844 65.117188 L 16.15625 65.117188 C 16.023438 64.761719 15.929688 64.382812 15.894531 63.976562 C 12.957031 63.816406 11.257812 61.808594 11.089844 59.824219 Z M 11.089844 59.824219 "/>
<path style=" stroke:none;fill-rule:nonzero;fill:rgb(29.803923%,50.980395%,76.47059%);fill-opacity:1;" d="M 33.734375 58.574219 C 35.253906 56.121094 34.566406 53.320312 33.144531 51.566406 C 32.875 51.234375 32.578125 50.929688 32.261719 50.660156 L 32.261719 51.933594 C 32.375 52.050781 32.484375 52.175781 32.589844 52.304688 C 33.710938 53.695312 34.464844 56.085938 32.894531 58.253906 C 32.820312 58.359375 32.78125 58.492188 32.785156 58.632812 C 32.792969 58.773438 32.84375 58.902344 32.925781 58.992188 C 34.113281 60.308594 34.179688 62.851562 33.082031 64.902344 C 31.640625 67.605469 28.238281 69.230469 23.023438 65.699219 C 22.964844 65.660156 22.902344 65.636719 22.835938 65.636719 C 22.75 65.636719 22.667969 65.675781 22.59375 65.742188 C 21.429688 66.878906 19.484375 67.050781 18.074219 66.140625 C 17.785156 65.953125 17.386719 65.625 17.085938 65.117188 L 16.15625 65.117188 C 16.453125 65.914062 16.976562 66.582031 17.714844 67.058594 C 19.296875 68.078125 21.460938 67.933594 22.867188 66.75 C 25.035156 68.175781 26.917969 68.757812 28.507812 68.757812 C 30.996094 68.757812 32.757812 67.332031 33.742188 65.484375 C 34.980469 63.167969 34.957031 60.296875 33.734375 58.574219 Z M 33.734375 58.574219 "/>
<path style=" stroke:none;fill-rule:nonzero;fill:rgb(99.215686%,72.941178%,6.666667%);fill-opacity:1;" d="M 47.324219 48.125 C 47.457031 48.195312 47.550781 48.351562 47.570312 48.53125 L 48 53.027344 L 49.515625 53.027344 L 49.515625 47.742188 C 49.515625 47.582031 49.574219 47.433594 49.671875 47.335938 L 50.382812 46.640625 L 48.273438 45.835938 C 48.113281 45.777344 48 45.59375 47.988281 45.382812 C 47.980469 45.171875 48.070312 44.972656 48.222656 44.886719 L 50.230469 43.746094 L 48.472656 43.085938 C 48.339844 43.035156 48.238281 42.90625 48.199219 42.734375 C 48.164062 42.566406 48.199219 42.386719 48.289062 42.253906 L 49.515625 40.539062 L 43.265625 40.539062 C 43.363281 43.851562 44.933594 46.804688 47.324219 48.125 Z M 47.324219 48.125 "/>
<path style=" stroke:none;fill-rule:nonzero;fill:rgb(99.215686%,72.941178%,6.666667%);fill-opacity:1;" d="M 51.492188 43.160156 C 51.652344 43.222656 51.765625 43.402344 51.777344 43.613281 C 51.789062 43.828125 51.695312 44.027344 51.542969 44.113281 L 49.53125 45.257812 L 51.355469 45.949219 C 51.496094 46.003906 51.605469 46.15625 51.632812 46.34375 C 51.660156 46.53125 51.601562 46.722656 51.484375 46.839844 L 50.308594 47.992188 L 50.308594 53.027344 L 51.96875 53.027344 L 52.394531 48.546875 C 52.410156 48.367188 52.5 48.203125 52.632812 48.128906 C 55.03125 46.8125 56.601562 43.859375 56.703125 40.539062 L 50.589844 40.539062 L 49.304688 42.339844 Z M 51.492188 43.160156 "/>
<path style=" stroke:none;fill-rule:nonzero;fill:rgb(99.215686%,72.941178%,6.666667%);fill-opacity:1;" d="M 52.371094 56.21875 L 47.597656 56.21875 C 47.378906 56.21875 47.199219 55.992188 47.199219 55.710938 C 47.199219 55.429688 47.378906 55.203125 47.597656 55.203125 L 52.371094 55.203125 C 52.589844 55.203125 52.765625 55.429688 52.765625 55.710938 C 52.765625 55.992188 52.589844 56.21875 52.371094 56.21875 Z M 52.371094 58.183594 L 47.597656 58.183594 C 47.378906 58.183594 47.199219 57.957031 47.199219 57.675781 C 47.199219 57.394531 47.378906 57.167969 47.597656 57.167969 L 52.371094 57.167969 C 52.589844 57.167969 52.765625 57.394531 52.765625 57.675781 C 52.765625 57.957031 52.589844 58.183594 52.371094 58.183594 Z M 52.371094 60.148438 L 47.597656 60.148438 C 47.378906 60.148438 47.199219 59.921875 47.199219 59.640625 C 47.199219 59.359375 47.378906 59.132812 47.597656 59.132812 L 52.371094 59.132812 C 52.589844 59.132812 52.765625 59.359375 52.765625 59.640625 C 52.765625 59.921875 52.589844 60.148438 52.371094 60.148438 Z M 50.835938 62.113281 L 49.128906 62.113281 C 48.910156 62.113281 48.734375 61.882812 48.734375 61.605469 C 48.734375 61.324219 48.910156 61.09375 49.128906 61.09375 L 50.835938 61.09375 C 51.054688 61.09375 51.234375 61.324219 51.234375 61.605469 C 51.234375 61.882812 51.054688 62.113281 50.835938 62.113281 Z M 58.953125 40.539062 L 57.496094 40.539062 C 57.398438 44.167969 55.726562 47.410156 53.15625 48.945312 L 52.710938 53.597656 C 52.6875 53.851562 52.519531 54.042969 52.316406 54.042969 L 47.648438 54.042969 C 47.449219 54.042969 47.277344 53.851562 47.253906 53.597656 L 46.808594 48.941406 C 44.234375 47.398438 42.566406 44.160156 42.46875 40.539062 L 41.074219 40.539062 C 39.332031 40.539062 37.90625 42.363281 37.90625 44.59375 L 37.90625 61.0625 C 37.90625 63.292969 39.332031 65.117188 41.074219 65.117188 L 58.953125 65.117188 C 60.695312 65.117188 62.121094 63.292969 62.121094 61.0625 L 62.121094 44.59375 C 62.121094 42.363281 60.695312 40.539062 58.953125 40.539062 Z M 58.953125 40.539062 "/>
<path style=" stroke:none;fill-rule:nonzero;fill:rgb(29.803923%,50.980395%,76.47059%);fill-opacity:1;" d="M 8.484375 76.277344 L 9.625 76.277344 L 9.625 84.746094 L 8.484375 84.746094 Z M 8.484375 76.277344 L 9.625 76.277344 L 9.625 84.746094 L 8.484375 84.746094 Z M 9.039062 74.792969 C 8.902344 74.792969 8.777344 74.773438 8.660156 74.730469 C 8.542969 74.6875 8.441406 74.625 8.359375 74.546875 C 8.277344 74.46875 8.210938 74.375 8.164062 74.269531 C 8.117188 74.164062 8.09375 74.046875 8.09375 73.917969 C 8.09375 73.785156 8.117188 73.664062 8.167969 73.546875 C 8.214844 73.429688 8.28125 73.328125 8.367188 73.246094 C 8.453125 73.160156 8.554688 73.09375 8.667969 73.046875 C 8.785156 73 8.910156 72.972656 9.039062 72.972656 C 9.171875 72.972656 9.296875 73 9.410156 73.046875 C 9.523438 73.09375 9.621094 73.160156 9.707031 73.246094 C 9.792969 73.328125 9.859375 73.429688 9.910156 73.546875 C 9.957031 73.664062 9.984375 73.785156 9.984375 73.917969 C 9.984375 74.046875 9.960938 74.164062 9.914062 74.269531 C 9.863281 74.375 9.800781 74.46875 9.714844 74.546875 C 9.632812 74.625 9.535156 74.6875 9.417969 74.730469 C 9.304688 74.773438 9.175781 74.792969 9.039062 74.792969 Z M 9.039062 74.792969 "/>
<path style=" stroke:none;fill-rule:nonzero;fill:rgb(29.803923%,50.980395%,76.47059%);fill-opacity:1;" d="M 16.539062 79.097656 L 15.453125 79.097656 C 15.386719 78.570312 15.234375 78.132812 15 77.785156 C 14.765625 77.4375 14.386719 77.261719 13.867188 77.261719 C 13.152344 77.261719 12.644531 77.707031 12.339844 78.597656 C 12.140625 79.175781 12.042969 79.890625 12.042969 80.738281 C 12.042969 81.589844 12.183594 82.308594 12.464844 82.894531 C 12.746094 83.476562 13.1875 83.765625 13.792969 83.765625 C 14.253906 83.765625 14.621094 83.585938 14.890625 83.222656 C 15.164062 82.859375 15.351562 82.363281 15.453125 81.734375 L 16.539062 81.734375 C 16.414062 82.863281 16.105469 83.6875 15.609375 84.207031 C 15.113281 84.730469 14.476562 84.992188 13.703125 84.992188 C 12.835938 84.992188 12.144531 84.585938 11.625 83.773438 C 11.109375 82.957031 10.851562 81.945312 10.851562 80.726562 C 10.851562 79.234375 11.136719 78.070312 11.703125 77.238281 C 12.269531 76.40625 12.988281 75.992188 13.867188 75.992188 C 14.613281 75.992188 15.222656 76.226562 15.691406 76.691406 C 16.160156 77.15625 16.441406 77.960938 16.539062 79.097656 Z M 16.539062 79.097656 "/>
<path style=" stroke:none;fill-rule:nonzero;fill:rgb(29.803923%,50.980395%,76.47059%);fill-opacity:1;" d="M 22.273438 80.441406 C 22.273438 79.761719 22.199219 79.179688 22.046875 78.691406 C 21.753906 77.753906 21.226562 77.285156 20.457031 77.285156 C 19.683594 77.285156 19.15625 77.78125 18.871094 78.773438 C 18.71875 79.300781 18.640625 79.972656 18.640625 80.789062 C 18.640625 81.445312 18.71875 82.003906 18.871094 82.464844 C 19.160156 83.34375 19.6875 83.785156 20.457031 83.785156 C 20.980469 83.785156 21.410156 83.503906 21.757812 82.945312 C 22.101562 82.386719 22.273438 81.550781 22.273438 80.441406 Z M 17.566406 76.277344 L 18.652344 76.277344 L 18.652344 77.40625 C 18.875 77.019531 19.121094 76.71875 19.382812 76.507812 C 19.761719 76.191406 20.203125 76.03125 20.710938 76.03125 C 21.464844 76.03125 22.101562 76.402344 22.628906 77.140625 C 23.152344 77.878906 23.414062 78.933594 23.414062 80.304688 C 23.414062 82.15625 23.039062 83.480469 22.28125 84.277344 C 21.800781 84.777344 21.242188 85.03125 20.605469 85.03125 C 20.105469 85.03125 19.6875 84.890625 19.347656 84.609375 C 19.148438 84.449219 18.929688 84.179688 18.683594 83.792969 L 18.683594 88.136719 L 17.566406 88.136719 Z M 17.566406 76.277344 "/>
<path style=" stroke:none;fill-rule:nonzero;fill:rgb(29.803923%,50.980395%,76.47059%);fill-opacity:1;" d="M 29.953125 79.097656 L 28.867188 79.097656 C 28.800781 78.570312 28.648438 78.132812 28.414062 77.785156 C 28.179688 77.4375 27.800781 77.261719 27.277344 77.261719 C 26.566406 77.261719 26.058594 77.707031 25.753906 78.597656 C 25.554688 79.175781 25.457031 79.890625 25.457031 80.738281 C 25.457031 81.589844 25.597656 82.308594 25.878906 82.894531 C 26.160156 83.476562 26.601562 83.765625 27.203125 83.765625 C 27.667969 83.765625 28.035156 83.585938 28.304688 83.222656 C 28.578125 82.859375 28.761719 82.363281 28.867188 81.734375 L 29.953125 81.734375 C 29.828125 82.863281 29.519531 83.6875 29.023438 84.207031 C 28.527344 84.730469 27.890625 84.992188 27.117188 84.992188 C 26.25 84.992188 25.558594 84.585938 25.039062 83.773438 C 24.523438 82.957031 24.265625 81.945312 24.265625 80.726562 C 24.265625 79.234375 24.546875 78.070312 25.113281 77.238281 C 25.679688 76.40625 26.402344 75.992188 27.277344 75.992188 C 28.027344 75.992188 28.636719 76.226562 29.105469 76.691406 C 29.574219 77.15625 29.855469 77.960938 29.953125 79.097656 Z M 29.953125 79.097656 "/>
<path style=" stroke:none;fill-rule:nonzero;fill:rgb(29.803923%,50.980395%,76.47059%);fill-opacity:1;" d="M 31.980469 84.785156 C 31.84375 84.785156 31.714844 84.761719 31.597656 84.71875 C 31.480469 84.679688 31.378906 84.617188 31.296875 84.539062 C 31.214844 84.457031 31.148438 84.367188 31.101562 84.261719 C 31.054688 84.152344 31.03125 84.039062 31.03125 83.910156 C 31.03125 83.777344 31.054688 83.652344 31.105469 83.539062 C 31.15625 83.421875 31.222656 83.320312 31.308594 83.234375 C 31.390625 83.152344 31.492188 83.085938 31.609375 83.035156 C 31.722656 82.988281 31.847656 82.964844 31.980469 82.964844 C 32.113281 82.964844 32.234375 82.988281 32.347656 83.035156 C 32.460938 83.085938 32.5625 83.152344 32.644531 83.234375 C 32.730469 83.320312 32.796875 83.421875 32.847656 83.539062 C 32.898438 83.652344 32.921875 83.777344 32.921875 83.910156 C 32.921875 84.039062 32.898438 84.152344 32.851562 84.261719 C 32.804688 84.367188 32.738281 84.457031 32.65625 84.539062 C 32.574219 84.617188 32.472656 84.679688 32.359375 84.71875 C 32.242188 84.761719 32.117188 84.785156 31.980469 84.785156 Z M 31.980469 84.785156 "/>
<path style=" stroke:none;fill-rule:nonzero;fill:rgb(29.803923%,50.980395%,76.47059%);fill-opacity:1;" d="M 35.117188 73.640625 C 35.378906 73.152344 35.878906 72.910156 36.625 72.910156 C 36.695312 72.910156 36.765625 72.914062 36.839844 72.917969 C 36.917969 72.921875 37 72.929688 37.097656 72.941406 L 37.097656 74.246094 C 36.980469 74.234375 36.894531 74.226562 36.84375 74.226562 C 36.792969 74.222656 36.746094 74.222656 36.699219 74.222656 C 36.359375 74.222656 36.15625 74.332031 36.089844 74.558594 C 36.023438 74.785156 35.992188 75.355469 35.992188 76.277344 L 37.097656 76.277344 L 37.097656 77.40625 L 35.980469 77.40625 L 35.980469 84.746094 L 34.875 84.746094 L 34.875 77.40625 L 33.953125 77.40625 L 33.953125 76.277344 L 34.875 76.277344 L 34.875 74.945312 C 34.890625 74.351562 34.972656 73.917969 35.117188 73.640625 Z M 35.117188 73.640625 "/>
<path style=" stroke:none;fill-rule:nonzero;fill:rgb(29.803923%,50.980395%,76.47059%);fill-opacity:1;" d="M 42.695312 80.351562 C 42.695312 79.558594 42.597656 78.914062 42.398438 78.414062 C 42.082031 77.632812 41.539062 77.238281 40.769531 77.238281 C 40.085938 77.238281 39.589844 77.574219 39.28125 78.238281 C 38.96875 78.90625 38.8125 79.710938 38.8125 80.652344 C 38.8125 81.558594 38.96875 82.316406 39.28125 82.917969 C 39.589844 83.523438 40.082031 83.824219 40.757812 83.824219 C 41.5 83.824219 42.007812 83.464844 42.28125 82.746094 C 42.558594 82.03125 42.695312 81.230469 42.695312 80.351562 Z M 43.863281 80.3125 C 43.863281 81.683594 43.601562 82.816406 43.082031 83.710938 C 42.558594 84.605469 41.75 85.054688 40.65625 85.054688 C 39.742188 85.054688 39.015625 84.660156 38.480469 83.867188 C 37.941406 83.074219 37.671875 82.011719 37.671875 80.679688 C 37.671875 79.25 37.957031 78.109375 38.523438 77.261719 C 39.089844 76.414062 39.847656 75.992188 40.804688 75.992188 C 41.660156 75.992188 42.382812 76.359375 42.976562 77.089844 C 43.566406 77.820312 43.863281 78.894531 43.863281 80.3125 Z M 43.863281 80.3125 "/>
<path style=" stroke:none;fill-rule:nonzero;fill:rgb(29.803923%,50.980395%,76.47059%);fill-opacity:1;" d="M 46.242188 76.238281 L 46.242188 81.878906 C 46.242188 82.3125 46.296875 82.667969 46.402344 82.941406 C 46.601562 83.449219 46.972656 83.703125 47.511719 83.703125 C 48.289062 83.703125 48.820312 83.257812 49.101562 82.371094 C 49.253906 81.894531 49.328125 81.242188 49.328125 80.410156 L 49.328125 76.238281 L 50.445312 76.238281 L 50.445312 84.746094 L 49.390625 84.746094 L 49.402344 83.488281 C 49.257812 83.8125 49.078125 84.085938 48.863281 84.308594 C 48.4375 84.753906 47.921875 84.976562 47.3125 84.976562 C 46.367188 84.976562 45.722656 84.570312 45.378906 83.757812 C 45.195312 83.324219 45.101562 82.746094 45.101562 82.019531 L 45.101562 76.238281 Z M 46.242188 76.238281 "/>
<path style=" stroke:none;fill-rule:nonzero;fill:rgb(29.803923%,50.980395%,76.47059%);fill-opacity:1;" d="M 52.125 76.238281 L 53.1875 76.238281 L 53.1875 77.445312 C 53.5 76.949219 53.832031 76.589844 54.183594 76.375 C 54.535156 76.15625 54.929688 76.046875 55.359375 76.046875 C 56.304688 76.046875 56.941406 76.46875 57.273438 77.308594 C 57.453125 77.773438 57.542969 78.429688 57.542969 79.289062 L 57.542969 84.746094 L 56.402344 84.746094 L 56.402344 79.382812 C 56.402344 78.863281 56.34375 78.445312 56.222656 78.128906 C 56.027344 77.597656 55.667969 77.335938 55.144531 77.335938 C 54.878906 77.335938 54.664062 77.367188 54.492188 77.4375 C 54.1875 77.554688 53.917969 77.785156 53.6875 78.136719 C 53.5 78.417969 53.378906 78.707031 53.324219 79.007812 C 53.269531 79.304688 53.242188 79.734375 53.242188 80.289062 L 53.242188 84.746094 L 52.125 84.746094 Z M 52.125 76.238281 "/>
<path style=" stroke:none;fill-rule:nonzero;fill:rgb(29.803923%,50.980395%,76.47059%);fill-opacity:1;" d="M 61.800781 83.800781 C 62.316406 83.800781 62.742188 83.515625 63.074219 82.945312 C 63.40625 82.375 63.574219 81.558594 63.574219 80.496094 C 63.574219 79.421875 63.402344 78.625 63.058594 78.109375 C 62.714844 77.59375 62.292969 77.335938 61.785156 77.335938 C 61.226562 77.335938 60.769531 77.609375 60.417969 78.160156 C 60.070312 78.710938 59.894531 79.523438 59.894531 80.589844 C 59.894531 81.5 60.046875 82.265625 60.347656 82.878906 C 60.648438 83.492188 61.132812 83.800781 61.800781 83.800781 Z M 62.851562 76.5 C 63.050781 76.660156 63.277344 76.9375 63.53125 77.335938 L 63.53125 73.039062 L 64.601562 73.039062 L 64.601562 84.746094 L 63.597656 84.746094 L 63.597656 83.5625 C 63.335938 84.085938 63.027344 84.464844 62.671875 84.695312 C 62.316406 84.929688 61.910156 85.046875 61.453125 85.046875 C 60.710938 85.046875 60.070312 84.648438 59.53125 83.851562 C 58.988281 83.054688 58.71875 81.992188 58.71875 80.667969 C 58.71875 79.429688 58.964844 78.359375 59.457031 77.449219 C 59.953125 76.542969 60.660156 76.085938 61.574219 76.085938 C 62.085938 76.085938 62.511719 76.226562 62.851562 76.5 Z M 62.851562 76.5 "/>
<path style=" stroke:none;fill-rule:nonzero;fill:rgb(29.803923%,50.980395%,76.47059%);fill-opacity:1;" d="M 68.234375 83.816406 C 68.628906 83.816406 69.007812 83.699219 69.375 83.464844 C 69.996094 83.078125 70.304688 82.445312 70.304688 81.566406 L 70.304688 80.414062 C 70.167969 80.527344 69.992188 80.621094 69.777344 80.695312 C 69.5625 80.769531 69.351562 80.820312 69.144531 80.851562 L 68.46875 80.964844 C 68.066406 81.03125 67.761719 81.140625 67.558594 81.289062 C 67.214844 81.539062 67.042969 81.933594 67.042969 82.480469 C 67.042969 82.894531 67.160156 83.21875 67.398438 83.457031 C 67.632812 83.695312 67.910156 83.816406 68.234375 83.816406 Z M 69.746094 79.589844 C 70.003906 79.546875 70.175781 79.410156 70.261719 79.175781 C 70.3125 79.050781 70.335938 78.867188 70.335938 78.628906 C 70.335938 78.140625 70.203125 77.789062 69.929688 77.570312 C 69.660156 77.347656 69.273438 77.238281 68.769531 77.238281 C 68.183594 77.238281 67.773438 77.441406 67.527344 77.84375 C 67.390625 78.066406 67.300781 78.394531 67.261719 78.835938 L 66.21875 78.835938 C 66.238281 77.785156 66.503906 77.058594 67.015625 76.648438 C 67.527344 76.238281 68.117188 76.03125 68.792969 76.03125 C 69.574219 76.03125 70.207031 76.222656 70.695312 76.605469 C 71.179688 76.984375 71.421875 77.578125 71.421875 78.382812 L 71.421875 83.285156 C 71.421875 83.429688 71.445312 83.550781 71.492188 83.640625 C 71.542969 83.730469 71.640625 83.777344 71.792969 83.777344 C 71.84375 83.777344 71.898438 83.773438 71.960938 83.761719 C 72.023438 83.753906 72.089844 83.742188 72.160156 83.726562 L 72.160156 84.785156 C 71.984375 84.847656 71.855469 84.886719 71.761719 84.902344 C 71.671875 84.917969 71.546875 84.925781 71.390625 84.925781 C 71.007812 84.925781 70.726562 84.753906 70.554688 84.402344 C 70.464844 84.21875 70.398438 83.957031 70.363281 83.617188 C 70.132812 83.996094 69.808594 84.328125 69.382812 84.609375 C 68.957031 84.890625 68.488281 85.03125 67.972656 85.03125 C 67.359375 85.03125 66.855469 84.789062 66.464844 84.3125 C 66.074219 83.832031 65.878906 83.234375 65.878906 82.511719 C 65.878906 81.722656 66.070312 81.113281 66.457031 80.679688 C 66.839844 80.242188 67.34375 79.976562 67.96875 79.875 Z M 69.746094 79.589844 "/>
<path style=" stroke:none;fill-rule:nonzero;fill:rgb(29.803923%,50.980395%,76.47059%);fill-opacity:1;" d="M 73.476562 73.863281 L 74.605469 73.863281 L 74.605469 76.238281 L 75.664062 76.238281 L 75.664062 77.40625 L 74.605469 77.40625 L 74.605469 82.957031 C 74.605469 83.253906 74.683594 83.453125 74.839844 83.554688 C 74.925781 83.613281 75.070312 83.640625 75.273438 83.640625 C 75.328125 83.640625 75.386719 83.640625 75.445312 83.636719 C 75.507812 83.632812 75.582031 83.628906 75.664062 83.617188 L 75.664062 84.746094 C 75.535156 84.792969 75.402344 84.828125 75.265625 84.847656 C 75.125 84.867188 74.976562 84.878906 74.8125 84.878906 C 74.292969 84.878906 73.941406 84.707031 73.753906 84.367188 C 73.566406 84.027344 73.476562 83.582031 73.476562 83.035156 L 73.476562 77.40625 L 72.574219 77.40625 L 72.574219 76.238281 L 73.476562 76.238281 Z M 73.476562 73.863281 "/>
<path style=" stroke:none;fill-rule:nonzero;fill:rgb(29.803923%,50.980395%,76.47059%);fill-opacity:1;" d="M 76.78125 76.277344 L 77.921875 76.277344 L 77.921875 84.746094 L 76.78125 84.746094 Z M 76.78125 76.277344 L 77.921875 76.277344 L 77.921875 84.746094 L 76.78125 84.746094 Z M 77.339844 74.792969 C 77.203125 74.792969 77.074219 74.773438 76.957031 74.730469 C 76.839844 74.6875 76.738281 74.625 76.65625 74.546875 C 76.574219 74.46875 76.507812 74.375 76.460938 74.269531 C 76.414062 74.164062 76.390625 74.046875 76.390625 73.917969 C 76.390625 73.785156 76.414062 73.664062 76.464844 73.546875 C 76.515625 73.429688 76.582031 73.328125 76.664062 73.246094 C 76.75 73.160156 76.851562 73.09375 76.964844 73.046875 C 77.082031 73 77.207031 72.972656 77.339844 72.972656 C 77.472656 72.972656 77.59375 73 77.707031 73.046875 C 77.820312 73.09375 77.921875 73.160156 78.003906 73.246094 C 78.089844 73.328125 78.15625 73.429688 78.207031 73.546875 C 78.257812 73.664062 78.28125 73.785156 78.28125 73.917969 C 78.28125 74.046875 78.257812 74.164062 78.210938 74.269531 C 78.160156 74.375 78.097656 74.46875 78.015625 74.546875 C 77.929688 74.625 77.832031 74.6875 77.714844 74.730469 C 77.601562 74.773438 77.476562 74.792969 77.339844 74.792969 Z M 77.339844 74.792969 "/>
<path style=" stroke:none;fill-rule:nonzero;fill:rgb(29.803923%,50.980395%,76.47059%);fill-opacity:1;" d="M 84.171875 80.351562 C 84.171875 79.558594 84.074219 78.914062 83.875 78.414062 C 83.558594 77.632812 83.015625 77.238281 82.246094 77.238281 C 81.5625 77.238281 81.066406 77.574219 80.757812 78.238281 C 80.445312 78.90625 80.289062 79.710938 80.289062 80.652344 C 80.289062 81.558594 80.445312 82.316406 80.757812 82.917969 C 81.066406 83.523438 81.558594 83.824219 82.234375 83.824219 C 82.976562 83.824219 83.484375 83.464844 83.757812 82.746094 C 84.035156 82.03125 84.171875 81.230469 84.171875 80.351562 Z M 85.339844 80.3125 C 85.339844 81.683594 85.078125 82.816406 84.558594 83.710938 C 84.035156 84.605469 83.226562 85.054688 82.132812 85.054688 C 81.21875 85.054688 80.492188 84.660156 79.957031 83.867188 C 79.417969 83.074219 79.148438 82.011719 79.148438 80.679688 C 79.148438 79.25 79.433594 78.109375 80 77.261719 C 80.566406 76.414062 81.324219 75.992188 82.28125 75.992188 C 83.136719 75.992188 83.859375 76.359375 84.453125 77.089844 C 85.042969 77.820312 85.339844 78.894531 85.339844 80.3125 Z M 85.339844 80.3125 "/>
<path style=" stroke:none;fill-rule:nonzero;fill:rgb(29.803923%,50.980395%,76.47059%);fill-opacity:1;" d="M 86.601562 76.238281 L 87.664062 76.238281 L 87.664062 77.445312 C 87.976562 76.949219 88.308594 76.589844 88.664062 76.375 C 89.015625 76.15625 89.40625 76.046875 89.835938 76.046875 C 90.78125 76.046875 91.417969 76.46875 91.75 77.308594 C 91.929688 77.773438 92.023438 78.429688 92.023438 79.289062 L 92.023438 84.746094 L 90.878906 84.746094 L 90.878906 79.382812 C 90.878906 78.863281 90.820312 78.445312 90.699219 78.128906 C 90.503906 77.597656 90.144531 77.335938 89.621094 77.335938 C 89.355469 77.335938 89.140625 77.367188 88.96875 77.4375 C 88.664062 77.554688 88.394531 77.785156 88.164062 78.136719 C 87.976562 78.417969 87.859375 78.707031 87.800781 79.007812 C 87.746094 79.304688 87.71875 79.734375 87.71875 80.289062 L 87.71875 84.746094 L 86.601562 84.746094 Z M 86.601562 76.238281 "/>
<path style=" stroke:none;fill-rule:nonzero;fill:rgb(99.215686%,72.941178%,6.666667%);fill-opacity:1;" d="M 42.726562 36.746094 C 42.675781 36.746094 42.621094 36.730469 42.570312 36.703125 L 38.277344 34.425781 C 38.117188 34.339844 38.019531 34.144531 38.019531 33.9375 C 38.019531 33.871094 38.03125 33.800781 38.054688 33.734375 C 38.140625 33.464844 38.378906 33.339844 38.589844 33.449219 L 42.886719 35.730469 C 43.046875 35.8125 43.140625 36.007812 43.140625 36.21875 C 43.140625 36.285156 43.128906 36.351562 43.109375 36.417969 C 43.042969 36.621094 42.890625 36.746094 42.726562 36.746094 Z M 42.726562 36.746094 "/>
<path style=" stroke:none;fill-rule:nonzero;fill:rgb(99.215686%,72.941178%,6.666667%);fill-opacity:1;" d="M 44.429688 33.480469 C 44.324219 33.480469 44.21875 33.429688 44.140625 33.328125 L 40.902344 29.179688 C 40.820312 29.078125 40.78125 28.945312 40.78125 28.808594 C 40.78125 28.671875 40.820312 28.539062 40.902344 28.433594 C 41.0625 28.230469 41.324219 28.230469 41.484375 28.433594 L 44.722656 32.582031 C 44.804688 32.683594 44.84375 32.820312 44.84375 32.953125 C 44.84375 33.089844 44.804688 33.226562 44.722656 33.328125 C 44.640625 33.429688 44.535156 33.480469 44.429688 33.480469 Z M 44.429688 33.480469 "/>
<path style=" stroke:none;fill-rule:nonzero;fill:rgb(99.215686%,72.941178%,6.666667%);fill-opacity:1;" d="M 46.976562 31.304688 C 46.816406 31.304688 46.664062 31.179688 46.597656 30.976562 L 44.859375 25.601562 C 44.835938 25.535156 44.828125 25.464844 44.828125 25.398438 C 44.828125 25.191406 44.921875 24.996094 45.082031 24.910156 C 45.292969 24.800781 45.53125 24.925781 45.621094 25.195312 L 47.359375 30.574219 C 47.378906 30.640625 47.390625 30.707031 47.390625 30.773438 C 47.390625 30.980469 47.292969 31.179688 47.136719 31.261719 C 47.082031 31.289062 47.03125 31.304688 46.976562 31.304688 Z M 46.976562 31.304688 "/>
<path style=" stroke:none;fill-rule:nonzero;fill:rgb(99.215686%,72.941178%,6.666667%);fill-opacity:1;" d="M 49.980469 30.539062 C 49.753906 30.539062 49.570312 30.300781 49.570312 30.007812 L 49.570312 24.195312 C 49.570312 23.90625 49.753906 23.667969 49.980469 23.667969 C 50.210938 23.667969 50.394531 23.90625 50.394531 24.195312 L 50.394531 30.007812 C 50.394531 30.300781 50.210938 30.539062 49.980469 30.539062 Z M 49.980469 30.539062 "/>
<path style=" stroke:none;fill-rule:nonzero;fill:rgb(99.215686%,72.941178%,6.666667%);fill-opacity:1;" d="M 52.984375 31.304688 C 52.933594 31.304688 52.878906 31.289062 52.828125 31.261719 C 52.671875 31.179688 52.574219 30.980469 52.574219 30.773438 C 52.574219 30.707031 52.585938 30.640625 52.605469 30.574219 L 54.355469 25.164062 C 54.441406 24.894531 54.683594 24.765625 54.894531 24.878906 C 55.054688 24.960938 55.148438 25.160156 55.148438 25.367188 C 55.148438 25.433594 55.136719 25.5 55.117188 25.566406 L 53.367188 30.976562 C 53.300781 31.179688 53.148438 31.304688 52.984375 31.304688 Z M 52.984375 31.304688 "/>
<path style=" stroke:none;fill-rule:nonzero;fill:rgb(99.215686%,72.941178%,6.666667%);fill-opacity:1;" d="M 55.535156 33.480469 C 55.429688 33.480469 55.324219 33.429688 55.242188 33.328125 C 55.160156 33.226562 55.121094 33.089844 55.121094 32.953125 C 55.121094 32.820312 55.160156 32.683594 55.242188 32.582031 L 58.515625 28.386719 C 58.679688 28.179688 58.9375 28.179688 59.101562 28.386719 C 59.179688 28.492188 59.21875 28.625 59.21875 28.761719 C 59.21875 28.894531 59.179688 29.03125 59.101562 29.132812 L 55.824219 33.328125 C 55.746094 33.429688 55.640625 33.480469 55.535156 33.480469 Z M 55.535156 33.480469 "/>
<path style=" stroke:none;fill-rule:nonzero;fill:rgb(99.215686%,72.941178%,6.666667%);fill-opacity:1;" d="M 57.234375 36.746094 C 57.074219 36.746094 56.921875 36.621094 56.855469 36.417969 C 56.832031 36.351562 56.824219 36.285156 56.824219 36.21875 C 56.824219 36.011719 56.917969 35.8125 57.078125 35.730469 L 61.4375 33.417969 C 61.648438 33.304688 61.890625 33.433594 61.976562 33.703125 C 61.996094 33.769531 62.007812 33.835938 62.007812 33.902344 C 62.007812 34.109375 61.910156 34.308594 61.753906 34.390625 L 57.394531 36.703125 C 57.339844 36.730469 57.289062 36.746094 57.234375 36.746094 Z M 57.234375 36.746094 "/>
<path style=" stroke:none;fill-rule:nonzero;fill:rgb(69.803923%,17.647059%,10.588235%);fill-opacity:1;" d="M 88.8125 40.542969 L 81.4375 40.542969 C 81.851562 41.023438 82.304688 41.457031 82.753906 41.820312 C 82.753906 41.820312 82.777344 41.839844 82.78125 41.84375 C 85.960938 44.476562 87.453125 47.40625 87.207031 50.550781 C 86.921875 54.238281 84.285156 58.066406 79.371094 61.933594 C 77.71875 63.234375 76.074219 64.324219 74.769531 65.121094 L 88.8125 65.121094 C 90.554688 65.121094 91.980469 63.292969 91.980469 61.0625 L 91.980469 44.597656 C 91.980469 42.367188 90.554688 40.542969 88.8125 40.542969 Z M 88.8125 40.542969 "/>
<path style=" stroke:none;fill-rule:nonzero;fill:rgb(69.803923%,17.647059%,10.588235%);fill-opacity:1;" d="M 86.410156 50.449219 C 86.621094 47.71875 85.253906 45.113281 82.34375 42.703125 C 81.933594 42.371094 81.058594 41.597656 80.308594 40.542969 L 70.929688 40.542969 C 69.1875 40.542969 67.765625 42.367188 67.765625 44.597656 L 67.765625 61.0625 C 67.765625 63.292969 69.1875 65.121094 70.929688 65.121094 L 72.847656 65.121094 C 76.03125 63.324219 85.882812 57.246094 86.410156 50.449219 Z M 86.410156 50.449219 "/>
<path style=" stroke:none;fill-rule:nonzero;fill:rgb(69.803923%,17.647059%,10.588235%);fill-opacity:1;" d="M 80.363281 33.324219 C 80.359375 33.324219 80.359375 33.328125 80.355469 33.332031 C 80.308594 33.351562 80.269531 33.382812 80.234375 33.421875 C 80.230469 33.425781 80.226562 33.429688 80.222656 33.433594 C 80.183594 33.480469 80.152344 33.53125 80.132812 33.59375 C 80.128906 33.59375 80.128906 33.597656 80.128906 33.597656 C 80.117188 33.628906 80.105469 33.664062 80.101562 33.699219 C 80.097656 33.726562 80.097656 33.753906 80.097656 33.78125 C 80.097656 33.789062 80.09375 33.792969 80.09375 33.800781 C 80.09375 33.867188 80.101562 33.933594 80.121094 33.996094 L 80.867188 36.4375 L 77.988281 36.4375 L 78.734375 33.996094 C 78.734375 33.992188 78.734375 33.988281 78.738281 33.988281 C 78.753906 33.929688 78.761719 33.871094 78.761719 33.808594 C 78.761719 33.796875 78.757812 33.78125 78.757812 33.769531 C 78.757812 33.746094 78.757812 33.722656 78.753906 33.699219 C 78.75 33.667969 78.738281 33.640625 78.730469 33.613281 C 78.726562 33.605469 78.726562 33.601562 78.726562 33.59375 C 78.726562 33.589844 78.722656 33.589844 78.722656 33.585938 C 78.703125 33.53125 78.671875 33.480469 78.636719 33.4375 C 78.632812 33.429688 78.625 33.425781 78.621094 33.417969 C 78.585938 33.382812 78.546875 33.351562 78.503906 33.332031 C 78.5 33.328125 78.496094 33.324219 78.492188 33.324219 C 75.160156 31.839844 72.402344 26.796875 72.21875 21.839844 C 72.128906 19.367188 72.734375 17.1875 73.96875 15.527344 C 75.304688 13.730469 77.242188 12.738281 79.4375 12.738281 C 81.613281 12.738281 83.550781 13.730469 84.890625 15.527344 C 86.125 17.1875 86.730469 19.367188 86.636719 21.839844 C 86.453125 26.796875 83.699219 31.839844 80.363281 33.324219 Z M 83.871094 34.527344 C 83.949219 34.722656 83.871094 34.855469 83.796875 34.9375 C 83.527344 35.210938 82.695312 35.347656 81.367188 34.0625 C 82.894531 33.683594 83.695312 34.097656 83.871094 34.527344 Z M 75.0625 34.9375 C 74.984375 34.859375 74.90625 34.722656 74.984375 34.53125 C 75.113281 34.21875 75.566406 33.914062 76.386719 33.914062 C 76.699219 33.914062 77.066406 33.960938 77.488281 34.0625 C 76.160156 35.347656 75.328125 35.214844 75.0625 34.9375 Z M 87.4375 21.890625 C 87.542969 19.132812 86.859375 16.6875 85.472656 14.820312 C 83.980469 12.816406 81.835938 11.714844 79.421875 11.714844 C 77.023438 11.714844 74.878906 12.816406 73.386719 14.820312 C 72 16.6875 71.316406 19.132812 71.421875 21.890625 C 71.578125 26.167969 73.527344 30.503906 76.15625 32.894531 C 75.121094 32.957031 74.519531 33.457031 74.273438 34.0625 C 74.039062 34.644531 74.152344 35.320312 74.558594 35.742188 C 74.796875 35.984375 75.136719 36.144531 75.570312 36.144531 C 76.085938 36.144531 76.730469 35.914062 77.472656 35.324219 L 77.03125 36.765625 C 76.980469 36.925781 76.996094 37.101562 77.070312 37.242188 C 77.148438 37.382812 77.269531 37.46875 77.402344 37.46875 L 79.058594 37.46875 C 79.160156 38.480469 79.589844 39.523438 80.308594 40.542969 L 81.4375 40.542969 C 80.78125 39.785156 80.03125 38.679688 79.867188 37.46875 L 81.457031 37.46875 C 81.589844 37.46875 81.710938 37.382812 81.785156 37.242188 C 81.859375 37.101562 81.878906 36.925781 81.828125 36.765625 L 81.386719 35.324219 C 82.128906 35.910156 82.769531 36.140625 83.285156 36.140625 C 83.71875 36.140625 84.0625 35.980469 84.296875 35.738281 C 84.707031 35.316406 84.820312 34.640625 84.582031 34.058594 C 84.339844 33.457031 83.734375 32.957031 82.703125 32.894531 C 85.332031 30.5 87.28125 26.164062 87.4375 21.890625 Z M 87.4375 21.890625 "/>
</g>
</svg>
