<svg xmlns="http://www.w3.org/2000/svg" width="96" height="96" viewBox="0 0 96 96" version="1.1"><path d="M 9.624 11.518 C 8.308 12.835, 8 15.390, 8 25 C 8 39.618, 8.257 40, 18.071 40 C 24.258 40, 25 40.207, 25 41.937 C 25 43.389, 24.190 43.952, 21.758 44.187 C 17.952 44.555, 16.743 47.608, 19.582 49.684 C 21.960 51.423, 34.040 51.423, 36.418 49.684 C 39.236 47.623, 38.050 44.555, 34.294 44.191 C 31.256 43.896, 31.090 43.658, 30.802 39.191 L 30.500 34.500 22.250 34.210 L 14 33.919 14 25.197 C 14 17.110, 14.164 16.402, 16.250 15.487 C 17.504 14.937, 18.500 13.615, 18.500 12.500 C 18.500 9.827, 12.031 9.111, 9.624 11.518 M 22.357 11.513 C 21.187 14.562, 23.940 16, 30.948 16 C 40.125 16, 42 17.919, 42 27.314 C 42 33.293, 41.792 34, 40.035 34 C 37.906 34, 35.996 36.736, 36.718 38.750 C 37.363 40.548, 44.547 40.310, 46.429 38.429 C 48.721 36.136, 48.721 13.864, 46.429 11.571 C 44.169 9.312, 23.221 9.261, 22.357 11.513 M 53.389 13.430 C 52.393 16.025, 53.788 18.169, 56.246 17.820 C 57.898 17.585, 58.500 16.833, 58.500 15 C 58.500 13.167, 57.898 12.415, 56.246 12.180 C 54.893 11.988, 53.750 12.488, 53.389 13.430 M 65.389 13.430 C 64.393 16.025, 65.788 18.169, 68.246 17.820 C 69.898 17.585, 70.500 16.833, 70.500 15 C 70.500 13.167, 69.898 12.415, 68.246 12.180 C 66.893 11.988, 65.750 12.488, 65.389 13.430 M 77.389 13.430 C 76.393 16.025, 77.788 18.169, 80.246 17.820 C 81.898 17.585, 82.500 16.833, 82.500 15 C 82.500 13.167, 81.898 12.415, 80.246 12.180 C 78.893 11.988, 77.750 12.488, 77.389 13.430 M 77.389 25.430 C 76.393 28.025, 77.788 30.169, 80.246 29.820 C 81.898 29.585, 82.500 28.833, 82.500 27 C 82.500 25.167, 81.898 24.415, 80.246 24.180 C 78.893 23.988, 77.750 24.488, 77.389 25.430 M 77.389 37.430 C 76.393 40.025, 77.788 42.169, 80.246 41.820 C 81.898 41.585, 82.500 40.833, 82.500 39 C 82.500 37.167, 81.898 36.415, 80.246 36.180 C 78.893 35.988, 77.750 36.488, 77.389 37.430 M 58.174 48.314 C 55.697 50.951, 55.038 59.488, 57.250 60.282 C 59.622 61.132, 62 59, 62 56.024 C 62 52.550, 63.306 51.459, 65.009 53.511 C 66.478 55.281, 75.044 55.556, 76.713 53.887 C 79.071 51.529, 80 54.228, 80 63.437 C 80 73.132, 81.122 75.935, 84.487 74.643 C 85.720 74.170, 86 71.867, 86 62.206 C 86 51.105, 85.852 50.210, 83.686 48.174 C 81.612 46.227, 80.276 46, 70.860 46 C 61.166 46, 60.180 46.180, 58.174 48.314 M 20.389 57.430 C 19.393 60.025, 20.788 62.169, 23.246 61.820 C 26.450 61.365, 26.450 56.635, 23.246 56.180 C 21.893 55.988, 20.750 56.488, 20.389 57.430 M 57.250 65.718 C 56.366 66.035, 56 69.021, 56 75.909 C 56 84.800, 56.202 85.841, 58.314 87.826 C 60.388 89.773, 61.724 90, 71.140 90 C 80.834 90, 81.820 89.820, 83.826 87.686 C 86.421 84.923, 86.710 80.210, 84.340 79.300 C 83.237 78.877, 81.955 79.573, 80.516 81.377 C 78.446 83.973, 78.010 84.078, 70.426 83.795 L 62.500 83.500 62.210 75.264 C 61.978 68.696, 61.573 66.849, 60.210 66.149 C 59.269 65.666, 57.938 65.472, 57.250 65.718 M 20.389 69.430 C 19.393 72.025, 20.788 74.169, 23.246 73.820 C 24.898 73.585, 25.500 72.833, 25.500 71 C 25.500 69.167, 24.898 68.415, 23.246 68.180 C 21.893 67.988, 20.750 68.488, 20.389 69.430 M 20.389 81.430 C 19.393 84.025, 20.788 86.169, 23.246 85.820 C 24.898 85.585, 25.500 84.833, 25.500 83 C 25.500 81.167, 24.898 80.415, 23.246 80.180 C 21.893 79.988, 20.750 80.488, 20.389 81.430 M 32.389 81.430 C 31.393 84.025, 32.788 86.169, 35.246 85.820 C 36.898 85.585, 37.500 84.833, 37.500 83 C 37.500 81.167, 36.898 80.415, 35.246 80.180 C 33.893 79.988, 32.750 80.488, 32.389 81.430 M 44.389 81.430 C 43.393 84.025, 44.788 86.169, 47.246 85.820 C 48.898 85.585, 49.500 84.833, 49.500 83 C 49.500 81.167, 48.898 80.415, 47.246 80.180 C 45.893 79.988, 44.750 80.488, 44.389 81.430" stroke="none" fill="#2c9cfc" fill-rule="evenodd"/><path d="M 18 14.500 C 17.315 15.325, 16.135 16, 15.378 16 C 14.310 16, 14 18.022, 14 25 L 14 34 22.031 34 C 28.248 34, 30.193 34.339, 30.638 35.500 C 30.959 36.337, 32.446 37, 34 37 C 35.554 37, 37.041 36.337, 37.362 35.500 C 37.678 34.675, 38.851 34, 39.969 34 C 41.812 34, 42 33.368, 42 27.174 C 42 17.895, 40.102 16, 30.808 16 C 26.194 16, 23.875 15.555, 23 14.500 C 22.315 13.675, 21.190 13, 20.500 13 C 19.810 13, 18.685 13.675, 18 14.500 M 62.669 52.664 C 62.301 53.032, 62 54.622, 62 56.198 C 62 57.822, 61.350 59.312, 60.500 59.638 C 58.570 60.379, 58.538 65.609, 60.459 66.346 C 61.540 66.761, 61.993 69.053, 62.209 75.203 L 62.500 83.500 70.426 83.795 C 78.052 84.079, 78.439 83.985, 80.640 81.295 C 83.319 78.023, 83.588 75.733, 81.500 74 C 80.363 73.056, 80 70.500, 80 63.437 C 80 54.228, 79.071 51.529, 76.713 53.887 C 75.072 55.528, 66.943 55.258, 64.998 53.498 C 64.085 52.672, 63.037 52.297, 62.669 52.664" stroke="none" fill="#d5eafc" fill-rule="evenodd"/></svg>