<svg xmlns="http://www.w3.org/2000/svg" width="96" height="96" viewBox="0 0 96 96" version="1.1"><path d="M 15 24 C 15 27.157, 18.554 30, 22.500 30 C 26.446 30, 30 27.157, 30 24 C 30 22.178, 29.333 22, 22.500 22 C 15.667 22, 15 22.178, 15 24 M 55 60.764 C 55 61.199, 55.701 62.555, 56.557 63.777 C 58.706 66.846, 64.299 66.839, 66.451 63.766 C 67.887 61.716, 67.873 61.482, 66.280 60.923 C 65.325 60.588, 63.965 60.892, 63.257 61.600 C 62.209 62.648, 61.326 62.616, 58.486 61.430 C 56.569 60.629, 55 60.329, 55 60.764 M 21 66.500 L 21 72 15 72 L 9 72 9 77.500 C 9 81.667, 9.485 83.485, 11 85 C 12.908 86.908, 14.333 87, 42 87 C 77.562 87, 75 88.165, 75 72 C 75 62.889, 74.742 61, 73.500 61 C 72.272 61, 72 62.722, 72 70.500 C 72 78.703, 71.724 80.276, 69.977 82.023 C 68.427 83.573, 67.520 83.813, 66.095 83.051 C 63.801 81.823, 63 79.847, 63 75.418 L 63 72 43.500 72 L 24 72 24 66.500 C 24 62.278, 23.652 61, 22.500 61 C 21.348 61, 21 62.278, 21 66.500 M 27 62 C 27 62.550, 27.675 63, 28.500 63 C 29.325 63, 30 62.550, 30 62 C 30 61.450, 29.325 61, 28.500 61 C 27.675 61, 27 61.450, 27 62 M 33 62 C 33 62.550, 33.675 63, 34.500 63 C 35.325 63, 36 62.550, 36 62 C 36 61.450, 35.325 61, 34.500 61 C 33.675 61, 33 61.450, 33 62 M 39 62 C 39 62.550, 39.675 63, 40.500 63 C 41.325 63, 42 62.550, 42 62 C 42 61.450, 41.325 61, 40.500 61 C 39.675 61, 39 61.450, 39 62 M 45 62 C 45 62.550, 45.675 63, 46.500 63 C 47.325 63, 48 62.550, 48 62 C 48 61.450, 47.325 61, 46.500 61 C 45.675 61, 45 61.450, 45 62 M 12 77.500 C 12 78.875, 12.900 80.900, 14 82 C 15.880 83.880, 17.333 84, 38.257 84 L 60.514 84 60.157 79.500 L 59.799 75 35.899 75 L 12 75 12 77.500" stroke="none" fill="#ba44fc" fill-rule="evenodd"/><path d="M 15.299 10.960 C 9.496 14.498, 7.182 23.196, 10.500 29 C 11.384 30.546, 11.943 34.409, 11.965 39.128 C 12.010 48.903, 13.320 50.377, 18.760 46.777 L 22.507 44.298 26.245 46.779 C 31.676 50.383, 32.990 48.903, 33.035 39.128 C 33.057 34.409, 33.616 30.546, 34.500 29 C 35.286 27.625, 35.945 25.262, 35.965 23.750 L 36 21 54.250 20.999 L 72.500 20.998 72.210 40.999 C 71.956 58.468, 72.115 61, 73.460 61 C 74.773 61, 75 58.940, 75 47 L 75 33 81 33 L 87 33 87 27.500 C 87 23.333, 86.515 21.515, 85 20 C 83.112 18.112, 81.667 18, 59.161 18 L 35.321 18 34.181 15.498 C 31.469 9.546, 21.533 7.158, 15.299 10.960 M 19.255 13.191 C 15.304 14.242, 12.800 17.798, 12.800 22.356 C 12.800 28.757, 16.243 32.200, 22.644 32.200 C 27.202 32.200, 30.758 29.696, 31.809 25.745 C 32.751 22.204, 31.779 17.350, 29.714 15.286 C 27.650 13.221, 22.796 12.249, 19.255 13.191 M 17 17 C 13.095 20.905, 14.299 22, 22.500 22 C 28.500 22, 30 21.700, 30 20.500 C 30 17.795, 26.189 15, 22.500 15 C 20.333 15, 18.238 15.762, 17 17 M 76.977 23.023 C 75.890 24.110, 75 26.125, 75 27.500 C 75 29.796, 75.367 30, 79.500 30 C 83.381 30, 84 29.716, 84 27.934 C 84 22.687, 80.065 19.935, 76.977 23.023 M 42 34.500 C 42 35.759, 44.167 36, 55.500 36 C 66.833 36, 69 35.759, 69 34.500 C 69 33.241, 66.833 33, 55.500 33 C 44.167 33, 42 33.241, 42 34.500 M 15 38.965 C 15 41.734, 15.199 44, 15.443 44 C 15.686 44, 17.389 43.113, 19.226 42.029 C 22.550 40.068, 22.582 40.068, 25.807 42.029 C 27.590 43.113, 29.262 44, 29.524 44 C 29.786 44, 30 41.734, 30 38.965 C 30 34.297, 29.859 34.005, 28.066 34.965 C 27.002 35.534, 24.497 36, 22.500 36 C 20.503 36, 17.998 35.534, 16.934 34.965 C 15.141 34.005, 15 34.297, 15 38.965 M 42 40.500 C 42 41.738, 43.833 42, 52.500 42 C 61.167 42, 63 41.738, 63 40.500 C 63 39.262, 61.167 39, 52.500 39 C 43.833 39, 42 39.262, 42 40.500 M 42 46.500 C 42 47.700, 43.500 48, 49.500 48 C 55.500 48, 57 47.700, 57 46.500 C 57 45.300, 55.500 45, 49.500 45 C 43.500 45, 42 45.300, 42 46.500 M 21 56 C 21 59.778, 21.367 61, 22.500 61 C 23.633 61, 24 59.778, 24 56 C 24 52.222, 23.633 51, 22.500 51 C 21.367 51, 21 52.222, 21 56 M 56.437 56.456 C 55.552 57.807, 55.118 59.382, 55.473 59.956 C 56.418 61.486, 59 61.230, 59 59.607 C 59 57.267, 61.938 56.905, 63.750 59.021 C 67.175 63.021, 69.507 60.597, 66.443 56.223 C 64.202 53.022, 58.601 53.153, 56.437 56.456 M 27 59 C 27 60.111, 27.667 61, 28.500 61 C 29.333 61, 30 60.111, 30 59 C 30 57.889, 29.333 57, 28.500 57 C 27.667 57, 27 57.889, 27 59 M 33 59 C 33 60.111, 33.667 61, 34.500 61 C 35.333 61, 36 60.111, 36 59 C 36 57.889, 35.333 57, 34.500 57 C 33.667 57, 33 57.889, 33 59 M 39 59 C 39 60.111, 39.667 61, 40.500 61 C 41.333 61, 42 60.111, 42 59 C 42 57.889, 41.333 57, 40.500 57 C 39.667 57, 39 57.889, 39 59 M 45 59 C 45 60.111, 45.667 61, 46.500 61 C 47.333 61, 48 60.111, 48 59 C 48 57.889, 47.333 57, 46.500 57 C 45.667 57, 45 57.889, 45 59" stroke="none" fill="#624efc" fill-rule="evenodd"/></svg>