<?xml version="1.0" encoding="UTF-8"?>
<svg xmlns="http://www.w3.org/2000/svg" xmlns:xlink="http://www.w3.org/1999/xlink" width="100px" height="100px" viewBox="0 0 100 100" version="1.1">
<g id="surface1">
<path style=" stroke:none;fill-rule:evenodd;fill:rgb(2.745098%,43.921569%,70.19608%);fill-opacity:1;" d="M 73.316406 33.28125 C 68.890625 35.15625 70.242188 37.007812 76.621094 37.8125 C 78.433594 38.039062 78.457031 38.058594 77.460938 38.542969 C 75.671875 39.410156 68.90625 41.664062 66.011719 42.355469 C 58.648438 44.113281 49.4375 44.929688 43.613281 44.339844 C 34.625 43.429688 31.136719 40.863281 33.863281 37.167969 C 34.539062 36.25 35.09375 35.367188 35.09375 35.203125 C 35.097656 34.480469 25.539062 35.589844 21.632812 36.769531 C 16.675781 38.269531 12.996094 41.671875 13.664062 44.148438 C 14.097656 45.742188 17.085938 47.433594 21.597656 48.628906 C 27.171875 50.109375 30.339844 50.460938 37.980469 50.453125 C 48.398438 50.4375 57.917969 48.835938 67.066406 45.554688 C 71.488281 43.96875 77.605469 40.875 79.910156 39.054688 C 81.0625 38.144531 82.269531 37.644531 84.375 37.199219 C 88.027344 36.425781 89.46875 35.910156 91.582031 34.625 C 94.144531 33.066406 93.621094 32.9375 89.980469 34.230469 C 86.15625 35.589844 81.375 36.058594 78.8125 35.324219 C 77.453125 34.933594 77.328125 34.78125 77.5625 33.777344 C 77.8125 32.714844 77.761719 32.667969 76.292969 32.667969 C 75.449219 32.667969 74.109375 32.945312 73.316406 33.28125 M 79.085938 40.195312 C 73.390625 43.753906 62.121094 48.226562 53.605469 50.316406 C 43.339844 52.835938 31.703125 54.09375 25.179688 53.390625 C 19.132812 52.738281 17.113281 51.441406 19.011719 49.429688 L 19.828125 48.566406 L 17.59375 48.777344 C 14.144531 49.105469 10.792969 50.261719 8.664062 51.863281 C 6.996094 53.117188 6.730469 53.527344 6.730469 54.835938 C 6.730469 58.726562 12.074219 60.246094 22.703125 59.378906 C 43.882812 57.644531 65.292969 51.15625 77.183594 42.859375 C 80.207031 40.75 82.5625 38.65625 81.882812 38.683594 C 81.667969 38.691406 80.410156 39.371094 79.085938 40.195312 M 58.519531 52.648438 C 51.085938 54.824219 44.769531 57.230469 42.414062 58.777344 C 40.957031 59.738281 40.863281 59.925781 41.15625 61.285156 L 41.472656 62.753906 L 40.449219 62.042969 C 39.015625 61.050781 37.039062 61.15625 34.667969 62.34375 C 32.648438 63.359375 32.589844 63.574219 34 64.71875 C 34.835938 65.394531 35.582031 67.609375 39.871094 82.167969 L 41.148438 86.5 L 43.769531 86.957031 L 46.394531 87.414062 L 50.605469 84.609375 L 50.316406 81.554688 C 48.269531 59.867188 48.3125 60.742188 49.273438 60.003906 C 50.335938 59.191406 56.140625 57.144531 56.558594 57.4375 C 56.71875 57.546875 56.394531 60.683594 55.835938 64.402344 C 54.347656 74.335938 52.882812 84.597656 52.882812 85.128906 C 52.882812 85.5 53.710938 85.5625 57.089844 85.4375 C 62.519531 85.234375 63.179688 85.078125 61.121094 84.476562 C 60.234375 84.214844 59 84 58.386719 84 C 57.773438 84 57.171875 83.886719 57.054688 83.75 C 56.9375 83.613281 57.140625 82.148438 57.5 80.5 C 57.859375 78.851562 58.503906 75.851562 58.929688 73.832031 C 61.125 63.460938 63.632812 55.59375 65.871094 52.082031 C 66.703125 50.777344 66.710938 50.667969 65.957031 50.6875 C 65.511719 50.699219 62.164062 51.582031 58.519531 52.648438 M 41.441406 63.832031 C 41.449219 64.382812 41.558594 64.566406 41.679688 64.242188 C 41.800781 63.917969 41.792969 63.46875 41.660156 63.242188 C 41.53125 63.019531 41.429688 63.285156 41.441406 63.832031 M 41.921875 66.5 C 41.929688 67.050781 42.039062 67.234375 42.160156 66.910156 C 42.28125 66.585938 42.273438 66.136719 42.140625 65.910156 C 42.011719 65.683594 41.910156 65.949219 41.921875 66.5 M 42.382812 69 C 42.382812 69.457031 42.492188 69.644531 42.625 69.417969 C 42.757812 69.1875 42.757812 68.8125 42.625 68.582031 C 42.492188 68.355469 42.382812 68.542969 42.382812 69 M 42.863281 71 C 42.863281 71.457031 42.972656 71.644531 43.105469 71.417969 C 43.242188 71.1875 43.242188 70.8125 43.105469 70.582031 C 42.972656 70.355469 42.863281 70.542969 42.863281 71 M 43.308594 73.195312 C 43.332031 73.582031 43.445312 73.660156 43.597656 73.394531 C 43.738281 73.15625 43.71875 72.867188 43.558594 72.757812 C 43.398438 72.644531 43.285156 72.84375 43.308594 73.195312 "/>
<path style=" stroke:none;fill-rule:evenodd;fill:rgb(85.882354%,28.235295%,11.764706%);fill-opacity:1;" d="M 46.140625 8.757812 C 44.945312 9.53125 42.960938 10.640625 41.738281 11.222656 C 38.976562 12.53125 36.945312 14.855469 36.640625 17.054688 C 36.292969 19.542969 37.613281 22.3125 41.613281 27.5 C 43.582031 30.054688 45.191406 32.480469 45.191406 32.898438 C 45.191406 33.335938 44.683594 33.882812 43.96875 34.207031 C 41.542969 35.308594 39.007812 33.476562 39.652344 31.085938 C 40.007812 29.773438 39.371094 29.683594 38.042969 30.855469 C 35.59375 33.011719 35.585938 35.652344 38.015625 38.601562 C 39.996094 41.003906 43.007812 42.332031 46.472656 42.332031 C 49.484375 42.332031 53.019531 41.570312 55.136719 40.464844 C 57.160156 39.410156 57.664062 39.449219 56.214844 40.554688 C 55.175781 41.339844 55.15625 41.414062 56.007812 41.191406 C 56.539062 41.054688 58.484375 40.546875 60.335938 40.066406 C 62.746094 39.445312 64.339844 38.753906 65.949219 37.640625 C 69.203125 35.386719 69.710938 33.914062 69.710938 26.78125 C 69.710938 22.234375 69.875 20.726562 70.492188 19.660156 C 70.921875 18.914062 71.117188 18.199219 70.925781 18.070312 C 70.734375 17.941406 69.640625 18.550781 68.492188 19.425781 C 66.125 21.234375 65 23.421875 64.558594 27.074219 L 64.277344 29.382812 L 62.878906 27.703125 C 61.0625 25.523438 57.761719 23.496094 53.328125 21.832031 C 51.371094 21.101562 48.847656 19.847656 47.722656 19.050781 C 46.59375 18.257812 45.671875 17.734375 45.671875 17.894531 C 45.671875 18.4375 47.277344 19.832031 51.175781 22.667969 C 56.214844 26.332031 57.351562 27.421875 58.59375 29.761719 C 59.621094 31.699219 60.019531 36.046875 59.246094 36.882812 C 59.054688 37.09375 58.894531 35.820312 58.890625 34.050781 C 58.890625 31.105469 58.761719 30.648438 57.339844 28.632812 C 56.269531 27.113281 54.328125 25.355469 51.082031 22.964844 C 45.71875 19.019531 44.402344 17.691406 43.964844 15.800781 C 43.691406 14.617188 43.964844 14.058594 46.355469 10.898438 C 47.839844 8.9375 48.886719 7.335938 48.683594 7.339844 C 48.484375 7.34375 47.339844 7.984375 46.140625 8.757812 M 79.8125 29.164062 C 79.089844 29.769531 79.507812 30.667969 80.515625 30.667969 C 80.917969 30.667969 81.25 30.824219 81.25 31.015625 C 81.25 31.207031 80.871094 31.316406 80.410156 31.265625 C 79.722656 31.183594 79.539062 31.457031 79.421875 32.730469 C 79.300781 34.027344 79.445312 34.355469 80.273438 34.660156 C 80.820312 34.863281 81.476562 34.941406 81.726562 34.835938 C 81.980469 34.726562 82.71875 34.882812 83.367188 35.175781 C 84.289062 35.59375 84.769531 35.632812 85.542969 35.34375 C 86.703125 34.914062 86.824219 34.480469 85.855469 34.222656 C 84.824219 33.949219 85.152344 31.789062 86.3125 31.199219 C 87.191406 30.75 87.199219 30.699219 86.417969 30.488281 C 85.957031 30.363281 85.578125 30.0625 85.578125 29.816406 C 85.578125 28.984375 84.542969 28.925781 83.5 29.703125 C 82.503906 30.445312 82.453125 30.449219 82.28125 29.824219 C 81.972656 28.699219 80.753906 28.375 79.8125 29.164062 M 81.730469 51.945312 C 81.730469 52.316406 79.53125 53 78.34375 53 C 77.265625 53 77.210938 53.128906 77.902344 54.023438 C 78.199219 54.40625 78.90625 54.667969 79.660156 54.667969 C 80.871094 54.667969 80.886719 54.691406 80.085938 55.304688 C 79.417969 55.816406 79.359375 56.085938 79.785156 56.640625 C 80.304688 57.308594 81.246094 57.59375 81.253906 57.082031 C 81.253906 56.945312 81.902344 56.578125 82.695312 56.265625 C 84.703125 55.472656 84.492188 56.078125 82.332031 57.316406 C 80.199219 58.539062 80.644531 58.964844 84.132812 59.035156 L 86.296875 59.078125 L 84.382812 59.332031 C 83.332031 59.472656 82.195312 59.511719 81.859375 59.425781 C 81.480469 59.324219 81.25 59.539062 81.25 60 C 81.25 60.640625 81.429688 60.707031 82.570312 60.507812 L 83.894531 60.277344 L 82.75 61.121094 C 81.4375 62.089844 81.652344 63.253906 83.058594 62.796875 C 83.515625 62.648438 84.707031 62.53125 85.695312 62.53125 C 87.089844 62.53125 87.5 62.402344 87.5 61.953125 C 87.5 61.257812 86.433594 60.714844 86.167969 61.273438 C 86.0625 61.488281 85.628906 61.667969 85.207031 61.667969 C 84.625 61.667969 84.757812 61.433594 85.746094 60.71875 C 86.867188 59.90625 86.984375 59.644531 86.566406 58.886719 C 86.300781 58.398438 85.75 58 85.347656 58 C 84.945312 58 84.617188 57.855469 84.617188 57.675781 C 84.617188 57.5 84.929688 57.4375 85.316406 57.539062 C 85.894531 57.695312 85.9375 57.535156 85.558594 56.613281 C 84.53125 54.113281 81.730469 50.695312 81.730469 51.945312 M 81.492188 53.664062 C 81.324219 53.851562 81.519531 53.90625 81.945312 53.792969 C 82.777344 53.574219 82.929688 53.332031 82.238281 53.332031 C 81.992188 53.332031 81.65625 53.480469 81.492188 53.664062 M 83.113281 54.917969 C 82.515625 55.445312 82.53125 55.457031 83.292969 55.042969 C 84.09375 54.605469 84.347656 54.332031 83.953125 54.332031 C 83.851562 54.332031 83.472656 54.59375 83.113281 54.917969 M 82.210938 65.222656 C 82.210938 66.222656 81.917969 67.003906 81.390625 67.410156 C 80.734375 67.914062 80.683594 68.160156 81.132812 68.660156 C 81.570312 69.148438 81.496094 69.765625 80.785156 71.546875 C 80.285156 72.792969 79.972656 73.917969 80.089844 74.046875 C 80.207031 74.175781 81 74.144531 81.855469 73.976562 C 82.707031 73.804688 84.003906 73.667969 84.730469 73.667969 C 86.546875 73.667969 86.402344 73.324219 84.046875 72.070312 C 82.132812 71.050781 82.09375 71 83.292969 71 C 83.980469 71 84.898438 71.242188 85.324219 71.539062 C 86.335938 72.242188 86.597656 72.015625 86.894531 70.210938 C 87.070312 69.121094 87.316406 68.765625 87.796875 68.894531 C 88.621094 69.113281 88.636719 68.730469 87.859375 67.570312 C 87.316406 66.753906 86.695312 66.519531 85.695312 66.75 C 85.5 66.796875 85.390625 66.945312 85.457031 67.082031 C 85.523438 67.21875 85.253906 67.332031 84.855469 67.332031 C 84.460938 67.332031 84.132812 67.121094 84.132812 66.859375 C 84.132812 66.601562 83.863281 66.300781 83.535156 66.191406 C 83.203125 66.085938 83.960938 66.054688 85.214844 66.125 L 87.5 66.25 L 87.5 65.058594 C 87.5 64.132812 87.371094 63.957031 86.921875 64.265625 C 86.605469 64.488281 85.578125 64.65625 84.640625 64.640625 C 83.699219 64.625 83.203125 64.539062 83.535156 64.445312 C 84.476562 64.183594 84.238281 63.667969 83.171875 63.667969 C 82.347656 63.667969 82.210938 63.890625 82.210938 65.222656 M 85.816406 68 C 85.652344 68.183594 85.75 68.332031 86.03125 68.332031 C 86.308594 68.332031 86.539062 68.183594 86.539062 68 C 86.539062 67.816406 86.441406 67.667969 86.328125 67.667969 C 86.210938 67.667969 85.980469 67.816406 85.816406 68 M 10.410156 69.941406 C 9.421875 70.699219 9.386719 71.785156 10.332031 72.332031 C 10.726562 72.558594 10.921875 72.882812 10.765625 73.054688 C 10.519531 73.335938 11.882812 76.101562 13.097656 77.777344 C 13.492188 78.324219 13.621094 78.335938 14.339844 77.886719 C 14.78125 77.613281 15.75 77.414062 16.488281 77.445312 L 17.835938 77.5 L 16.796875 78.082031 C 16.226562 78.40625 15.457031 78.667969 15.089844 78.667969 C 14.304688 78.667969 14.191406 79.527344 14.9375 79.847656 C 15.21875 79.96875 15.78125 79.789062 16.1875 79.449219 C 16.773438 78.960938 16.765625 79.023438 16.144531 79.75 C 15.371094 80.660156 15.375 80.667969 16.695312 80.707031 C 17.507812 80.730469 17.699219 80.804688 17.1875 80.894531 C 16.082031 81.097656 16.074219 81.082031 18.054688 82.878906 C 19.597656 84.28125 19.789062 84.363281 20.035156 83.714844 C 20.355469 82.871094 20.65625 82.832031 21.902344 83.496094 C 22.816406 83.980469 22.8125 83.992188 21.753906 84.199219 C 20.375 84.46875 20.394531 84.703125 21.875 85.667969 C 23.019531 86.414062 23.078125 86.417969 23.078125 85.78125 C 23.078125 85.417969 23.578125 84.789062 24.1875 84.390625 C 25.722656 83.394531 26.195312 83.472656 24.738281 84.484375 C 23.304688 85.476562 23.25 86.121094 24.519531 87 C 25.519531 87.695312 27.402344 87.910156 27.402344 87.332031 C 27.402344 87.148438 27.105469 87 26.742188 87 C 26.378906 87 25.820312 86.785156 25.507812 86.523438 C 25.050781 86.140625 25.140625 85.902344 25.945312 85.34375 C 27.074219 84.5625 27.882812 84.707031 27.882812 85.6875 C 27.882812 86.519531 28.453125 86.511719 29.214844 85.667969 C 29.546875 85.300781 29.613281 85 29.363281 85 C 29.113281 85 27.109375 83.777344 24.910156 82.285156 C 21.519531 79.988281 20.695312 79.585938 19.472656 79.652344 L 18.03125 79.734375 L 18.96875 79.015625 C 19.800781 78.378906 19.832031 78.210938 19.238281 77.566406 C 18.871094 77.164062 18.160156 76.257812 17.664062 75.554688 L 16.761719 74.273438 L 15.195312 75.53125 C 14.144531 76.375 13.511719 76.660156 13.277344 76.394531 C 13.0625 76.15625 13.21875 76 13.671875 76 C 14.085938 76 14.421875 75.851562 14.421875 75.667969 C 14.421875 75.484375 13.992188 75.332031 13.460938 75.332031 C 11.609375 75.332031 12.417969 74.351562 14.457031 74.125 C 16.28125 73.921875 16.394531 73.847656 16.105469 73.035156 C 15.933594 72.558594 15.605469 72.121094 15.375 72.0625 C 15.144531 72.003906 15.078125 71.742188 15.222656 71.476562 C 15.371094 71.210938 15.136719 70.621094 14.707031 70.164062 C 13.753906 69.15625 11.582031 69.046875 10.410156 69.941406 M 84.046875 69.738281 C 84.304688 69.917969 84.914062 70.003906 85.40625 69.929688 C 86.066406 69.835938 85.945312 69.75 84.9375 69.609375 C 84.0625 69.484375 83.746094 69.53125 84.046875 69.738281 M 11.179688 70.886719 C 10.082031 71.195312 10.554688 71.667969 11.960938 71.667969 C 12.722656 71.667969 13.613281 71.441406 13.941406 71.167969 C 14.453125 70.742188 14.335938 70.671875 13.160156 70.691406 C 12.402344 70.707031 11.507812 70.796875 11.179688 70.886719 M 81.25 72.332031 C 81.25 72.515625 81.695312 72.667969 82.238281 72.667969 C 82.785156 72.667969 83.097656 72.515625 82.933594 72.332031 C 82.769531 72.148438 82.324219 72 81.941406 72 C 81.5625 72 81.25 72.148438 81.25 72.332031 M 79.167969 74.554688 C 78.515625 75.007812 78.832031 75.984375 79.566406 75.789062 C 79.964844 75.683594 80.289062 75.761719 80.289062 75.964844 C 80.289062 76.167969 79.859375 76.332031 79.332031 76.332031 C 78.804688 76.332031 78.101562 76.632812 77.773438 77 C 77.441406 77.367188 76.660156 77.667969 76.035156 77.667969 C 75.070312 77.667969 74.941406 77.789062 75.1875 78.472656 C 75.484375 79.296875 74.378906 80.484375 71.679688 82.25 C 71.042969 82.667969 70.609375 83.054688 70.71875 83.113281 C 71.378906 83.464844 76.097656 84.683594 76.289062 84.550781 C 76.417969 84.460938 76.085938 83.703125 75.546875 82.859375 C 75.011719 82.019531 74.722656 81.339844 74.90625 81.34375 C 75.523438 81.363281 77.402344 82.601562 77.402344 82.988281 C 77.402344 83.644531 78.222656 83.066406 80.5 80.8125 C 82.519531 78.808594 83.363281 77.339844 82.214844 77.832031 C 81.953125 77.945312 81.382812 77.898438 80.949219 77.730469 C 80.320312 77.488281 80.511719 77.378906 81.890625 77.199219 C 84.25 76.890625 84.464844 76.464844 82.589844 75.808594 C 81.71875 75.503906 80.667969 75.046875 80.25 74.792969 C 79.832031 74.539062 79.34375 74.433594 79.167969 74.554688 M 79.132812 78.28125 C 78.96875 78.46875 79.066406 78.722656 79.351562 78.84375 C 80.089844 79.160156 80.566406 78.726562 79.949219 78.296875 C 79.605469 78.058594 79.335938 78.054688 79.132812 78.28125 M 77.164062 80.804688 C 77.957031 81.246094 78.691406 81.550781 78.792969 81.476562 C 79.054688 81.300781 76.796875 80.023438 76.203125 80.011719 C 75.9375 80.007812 76.371094 80.363281 77.164062 80.804688 M 19.296875 81.675781 C 17.808594 82.539062 18.480469 82.527344 20.0625 81.667969 C 20.734375 81.300781 21.09375 81.003906 20.859375 81.011719 C 20.625 81.015625 19.921875 81.316406 19.296875 81.675781 M 73.078125 82.332031 C 73.078125 82.515625 73.292969 82.667969 73.558594 82.667969 C 73.820312 82.667969 74.039062 82.515625 74.039062 82.332031 C 74.039062 82.148438 73.820312 82 73.558594 82 C 73.292969 82 73.078125 82.148438 73.078125 82.332031 M 67.171875 84.746094 C 64.621094 85.964844 64.460938 86.113281 65.246094 86.527344 C 66.253906 87.054688 65.71875 87.148438 64.429688 86.667969 C 63.773438 86.425781 62.78125 86.53125 60.734375 87.054688 C 57.105469 87.988281 56.476562 88.378906 57.164062 89.273438 C 57.453125 89.648438 57.691406 90.257812 57.691406 90.625 C 57.691406 91.550781 58.335938 91.738281 59.9375 91.285156 C 60.683594 91.070312 61.515625 90.875 61.777344 90.847656 C 62.042969 90.820312 62.867188 90.617188 63.613281 90.398438 C 64.355469 90.179688 65.167969 90 65.414062 90 C 66.148438 90 65.925781 89.085938 65.144531 88.878906 C 64.746094 88.773438 64.421875 88.535156 64.421875 88.347656 C 64.421875 88.160156 65.167969 88.257812 66.097656 88.566406 C 67.023438 88.871094 67.902344 89.03125 68.054688 88.925781 C 68.210938 88.820312 67.871094 88.101562 67.304688 87.332031 C 66.738281 86.5625 66.480469 86.019531 66.734375 86.125 C 66.984375 86.234375 67.554688 86.855469 68 87.507812 L 68.8125 88.691406 L 70.160156 87.929688 C 70.898438 87.507812 71.914062 87 72.410156 86.796875 C 73.253906 86.453125 73.210938 86.367188 71.726562 85.503906 C 70.855469 84.992188 70.25 84.375 70.386719 84.132812 C 70.871094 83.253906 69.90625 83.441406 67.171875 84.746094 M 68.269531 85.519531 C 68.269531 85.804688 68.488281 85.945312 68.757812 85.828125 C 69.027344 85.714844 69.121094 85.480469 68.96875 85.308594 C 68.558594 84.847656 68.269531 84.933594 68.269531 85.519531 M 30.128906 85.890625 C 29.484375 86.335938 29.804688 87.074219 30.550781 86.875 C 31.183594 86.707031 31.167969 86.828125 30.449219 87.671875 C 29.980469 88.21875 29.375 88.671875 29.101562 88.675781 C 28.476562 88.691406 30.703125 90 31.355469 90 C 31.617188 90 31.722656 89.796875 31.582031 89.546875 C 31.445312 89.300781 31.746094 88.660156 32.25 88.132812 C 33.042969 87.296875 33.175781 87.253906 33.226562 87.832031 C 33.320312 88.878906 33.121094 89.492188 32.648438 89.609375 C 31.730469 89.84375 32.28125 90.28125 34.144531 90.796875 C 36.753906 91.519531 36.875 91.496094 36.703125 90.25 L 36.558594 89.167969 L 37.335938 90.417969 C 37.761719 91.105469 38.355469 91.667969 38.652344 91.667969 C 39.507812 91.667969 40.953125 88.578125 40.242188 88.265625 C 39.234375 87.820312 38.867188 87.976562 39.203125 88.707031 C 39.421875 89.183594 39.351562 89.34375 38.992188 89.1875 C 38.699219 89.0625 38.460938 88.738281 38.460938 88.46875 C 38.460938 88.195312 37.441406 87.683594 36.179688 87.320312 C 34.921875 86.957031 33.320312 86.4375 32.617188 86.164062 C 31.21875 85.617188 30.613281 85.550781 30.128906 85.890625 M 69.472656 86.667969 C 69.632812 86.851562 69.972656 87 70.21875 87 C 70.46875 87 70.671875 86.851562 70.671875 86.667969 C 70.671875 86.484375 70.335938 86.332031 69.921875 86.332031 C 69.511719 86.332031 69.308594 86.484375 69.472656 86.667969 M 62.757812 88.332031 C 63.121094 89.25 63.796875 89.878906 64.15625 89.632812 C 64.28125 89.542969 63.941406 89.027344 63.40625 88.488281 C 62.488281 87.5625 62.445312 87.550781 62.757812 88.332031 M 35.222656 89.167969 C 34.9375 89.808594 34.882812 90.332031 35.101562 90.332031 C 35.53125 90.332031 36.28125 88.378906 35.945312 88.144531 C 35.832031 88.066406 35.503906 88.523438 35.222656 89.167969 M 53.761719 88.570312 C 53.054688 88.644531 52.222656 88.917969 51.914062 89.175781 C 51.433594 89.574219 51.191406 89.566406 50.226562 89.128906 C 49.328125 88.722656 48.890625 88.699219 48.046875 89.011719 C 47.46875 89.226562 46.859375 89.273438 46.695312 89.117188 C 46.527344 88.960938 45.25 88.78125 43.847656 88.71875 C 41.375 88.605469 41.3125 88.625 41.59375 89.398438 C 41.75 89.835938 41.644531 90.621094 41.359375 91.144531 C 41.074219 91.664062 40.898438 92.125 40.972656 92.167969 C 41.046875 92.207031 42.355469 92.339844 43.878906 92.457031 L 46.65625 92.675781 L 46.394531 91.753906 C 46.152344 90.90625 46.171875 90.894531 46.613281 91.589844 C 46.875 92.007812 47.421875 92.4375 47.820312 92.542969 C 48.222656 92.648438 48.433594 92.871094 48.285156 93.035156 C 48.140625 93.199219 48.476562 93.332031 49.039062 93.332031 C 49.597656 93.332031 49.9375 93.199219 49.792969 93.035156 C 49.648438 92.875 50.054688 92.5 50.699219 92.207031 C 51.417969 91.878906 51.988281 91.800781 52.167969 92.003906 C 52.621094 92.515625 55.101562 92.390625 55.777344 91.824219 C 56.59375 91.144531 56.085938 90.859375 54.871094 91.3125 C 54.0625 91.609375 53.796875 91.558594 53.386719 91.027344 C 52.519531 89.90625 54.109375 88.613281 55.054688 89.671875 C 55.542969 90.222656 56.179688 89.722656 55.90625 89 C 55.769531 88.632812 55.519531 88.355469 55.351562 88.382812 C 55.183594 88.410156 54.46875 88.496094 53.761719 88.570312 M 58.171875 88.464844 C 58.171875 88.535156 58.507812 88.683594 58.917969 88.792969 C 59.347656 88.90625 59.539062 88.851562 59.371094 88.664062 C 59.089844 88.347656 58.171875 88.195312 58.171875 88.464844 M 60.585938 88.730469 C 60.582031 89.039062 60.792969 89.386719 61.058594 89.5 C 61.667969 89.761719 61.667969 89.320312 61.058594 88.667969 C 60.65625 88.234375 60.589844 88.246094 60.585938 88.730469 M 48.28125 90.480469 C 47.976562 91.328125 48.308594 92 49.035156 92 C 49.636719 92 50.074219 90.855469 49.71875 90.214844 C 49.28125 89.421875 48.621094 89.542969 48.28125 90.480469 M 58.652344 90.34375 C 58.652344 90.519531 58.976562 90.667969 59.375 90.667969 C 59.773438 90.667969 60.097656 90.609375 60.097656 90.535156 C 60.097656 90.464844 59.773438 90.316406 59.375 90.210938 C 58.976562 90.105469 58.652344 90.167969 58.652344 90.34375 M 43.269531 91.332031 C 43.269531 91.515625 43.484375 91.667969 43.75 91.667969 C 44.015625 91.667969 44.230469 91.515625 44.230469 91.332031 C 44.230469 91.148438 44.015625 91 43.75 91 C 43.484375 91 43.269531 91.148438 43.269531 91.332031 "/>
</g>
</svg>
