<svg xmlns="http://www.w3.org/2000/svg" xmlns:xlink="http://www.w3.org/1999/xlink" width="500" zoomAndPan="magnify" viewBox="0 0 375 374.999991" height="500" preserveAspectRatio="xMidYMid meet" version="1.0"><defs><g/><clipPath id="b4a93deb1a"><path d="M 92.113281 90.816406 L 279.613281 90.816406 L 279.613281 278 L 92.113281 278 Z M 92.113281 90.816406 " clip-rule="nonzero"/></clipPath></defs><rect x="-37.5" width="450" fill="#ffffff" y="-37.499999" height="449.999989" fill-opacity="1"/><rect x="-37.5" width="450" fill="#122620" y="-37.499999" height="449.999989" fill-opacity="1"/><g clip-path="url(#b4a93deb1a)"><path fill="#fffef9" d="M 185.699219 277.988281 C 133.996094 277.988281 92.113281 235.816406 92.113281 184.402344 C 92.113281 132.988281 133.996094 90.816406 185.699219 90.816406 C 237.402344 90.816406 279.285156 132.699219 279.285156 184.402344 C 279.285156 236.105469 237.113281 277.988281 185.699219 277.988281 Z M 185.699219 96.59375 C 137.175781 96.59375 97.890625 135.875 97.890625 184.402344 C 97.890625 232.929688 137.175781 272.210938 185.699219 272.210938 C 234.226562 272.210938 273.507812 232.929688 273.507812 184.402344 C 273.507812 135.875 233.9375 96.59375 185.699219 96.59375 Z M 185.699219 96.59375 " fill-opacity="1" fill-rule="nonzero"/></g><path stroke-linecap="butt" transform="matrix(1.465975, 0, 0, 1.465975, 69.32406, 91.156364)" fill="none" stroke-linejoin="miter" d="M 60.747851 107.615463 C 62.11746 107.615463 63.428447 106.824074 64.678149 105.241296 C 65.92785 103.658519 67.110936 101.644075 68.230072 99.197965 C 69.346543 96.749189 70.324454 94.177842 71.161141 91.475929 C 72.013816 88.776681 72.69862 86.282607 73.215554 83.996373 C 73.735153 81.710139 74.020266 79.967485 74.073558 78.771076 C 73.529978 79.208072 73.050348 79.714348 72.637334 80.284574 C 72.22432 80.857465 71.747355 81.382393 71.20111 81.862022 C 69.791532 83.284923 68.296687 85.014254 66.71391 87.04735 C 65.131132 89.096434 63.686914 91.19881 62.383921 93.351814 C 61.080927 95.507482 60.129662 97.481957 59.530125 99.277903 C 59.35959 99.821483 59.165074 100.55425 58.951905 101.470875 C 58.738737 102.403488 58.600177 103.325443 58.533562 104.244733 C 58.480269 105.174681 58.621494 105.96607 58.951905 106.618899 C 59.284981 107.282386 59.884518 107.615463 60.747851 107.615463 Z M 24.061522 59.977593 C 24.061522 56.49495 24.362623 52.881741 24.959495 49.14596 C 25.559032 45.407514 26.39039 41.730355 27.453569 38.114481 C 28.516748 34.495943 29.755791 31.133207 31.165368 28.020944 C 32.095317 26.118414 33.211788 24.090647 34.514781 21.934979 C 35.831098 19.781975 37.333937 17.754208 39.023299 15.851677 C 40.71266 13.949147 42.561899 12.40101 44.571013 11.2046 C 46.590787 9.992204 48.799747 9.387337 51.192565 9.387337 C 53.321588 9.387337 55.322709 10.032173 57.198593 11.321843 C 59.071813 12.600855 60.694559 14.601976 62.064168 17.327871 C 63.633622 20.480102 64.59821 24.06933 64.957933 28.100882 C 65.317655 32.12977 65.277686 36.193298 64.838025 40.288801 C 64.398365 44.370981 63.7482 48.154725 62.882203 51.640033 C 62.495834 53.222811 62.192069 54.299312 61.965577 54.872203 C 61.752409 55.44243 61.40068 55.730207 60.907728 55.730207 C 60.747851 55.730207 60.542676 55.690238 60.289539 55.6103 C 60.049724 55.517039 59.76994 55.44243 59.452852 55.389137 C 59.22636 54.24602 59.165074 53.321401 59.271658 52.617945 C 59.391566 51.911823 59.530125 50.960558 59.690002 49.764149 C 60.182954 47.477915 60.548006 45.474129 60.78782 43.760786 C 61.040958 42.044778 61.192841 40.315447 61.246133 38.572794 C 61.299425 36.83014 61.326071 34.78372 61.326071 32.428207 C 61.326071 30.685553 61.134219 28.759041 60.747851 26.643342 C 60.361483 24.516984 59.764611 22.473229 58.951905 20.520071 C 58.141864 18.550926 57.105332 16.928179 55.839643 15.651832 C 54.589941 14.362161 53.06845 13.717326 51.272504 13.717326 C 49.250066 13.717326 47.355529 14.375484 45.586229 15.691801 C 43.819594 16.994795 42.156878 18.684156 40.600747 20.759886 C 39.057939 22.819629 37.667013 25.041912 36.430635 27.421407 C 35.207579 29.790244 34.157724 32.076478 33.278403 34.282774 C 32.41507 36.478411 31.770235 38.340973 31.343897 39.870458 C 30.677745 42.050108 30.046233 44.645436 29.449361 47.64845 C 28.849824 50.640805 28.423486 53.761062 28.173013 57.006555 C 27.933198 60.23606 27.959845 63.36964 28.252951 66.401964 C 28.556717 69.420965 29.28149 72.098897 30.427272 74.441088 C 30.810976 75.197836 31.263959 75.997219 31.783558 76.833906 C 32.300492 77.686581 32.913352 78.384708 33.616808 78.928288 C 34.549421 79.740994 35.545985 80.324543 36.609164 80.684265 C 37.675007 81.043987 38.751509 81.222516 39.841334 81.222516 C 41.850448 81.222516 43.872886 80.772197 45.905982 79.86623 C 47.955066 78.976251 49.876249 77.873103 51.672195 76.554122 C 53.481464 75.251129 54.984303 74.001427 56.180712 72.805018 L 60.587975 67.976748 C 62.59709 65.424053 64.225165 63.05788 65.474867 60.875566 C 66.740556 58.695916 68.190103 56.18852 69.826172 53.356041 C 70.263168 52.596628 70.809413 51.605393 71.459577 50.382338 C 72.112406 49.14596 72.818527 47.914911 73.575276 46.691855 C 74.345348 45.4688 75.110091 44.437597 75.869504 43.60091 C 76.626253 42.748235 77.332374 42.324562 77.985203 42.324562 C 78.755275 42.324562 79.328166 42.721589 79.698546 43.520971 C 80.084915 44.304366 80.343382 45.268955 80.476612 46.412072 C 80.623166 47.557853 80.697775 48.70097 80.697775 49.844087 C 80.697775 50.987204 80.697775 51.911823 80.697775 52.617945 C 80.697775 56.273787 80.449966 59.652511 79.959678 62.75145 C 79.466725 65.85039 79.194935 68.216562 79.141643 69.852632 C 79.408104 69.692755 79.578639 69.52755 79.658577 69.35435 C 79.738516 69.194474 79.973001 69.007951 80.356705 68.794782 C 80.636489 68.528321 80.857651 68.349793 81.014863 68.256531 C 81.174739 68.176593 81.395902 68.03004 81.675686 67.816871 L 93.024253 56.705454 C 93.357329 56.268458 93.79699 55.735536 94.34057 55.109353 C 94.886814 54.485835 95.459705 53.912944 96.056578 53.39601 C 96.656114 52.876412 97.229005 52.617945 97.772585 52.617945 C 98.585291 52.617945 98.889056 52.903058 98.691875 53.475948 C 98.505353 54.046175 98.097668 54.730979 97.474149 55.530362 C 96.847966 56.313756 96.197802 57.046524 95.518327 57.723334 C 94.841516 58.402809 94.415179 58.853128 94.241979 59.07962 C 93.695734 59.625865 93.21877 60.158786 92.805755 60.67572 C 92.406064 61.181996 91.907782 61.706924 91.31091 62.253169 L 79.061705 73.862868 C 78.51546 74.353156 78.182384 75.032631 78.062477 75.895964 C 77.958557 76.775285 77.798681 77.566673 77.585512 78.27013 C 77.199144 80.399152 76.666222 82.879902 75.989411 85.712381 C 75.309936 88.54486 74.478578 91.417308 73.495338 94.329725 C 72.512097 97.242142 71.352993 99.936061 70.023353 102.408818 C 68.693714 104.894897 67.158899 106.877366 65.416245 108.353559 C 65.029877 108.673312 64.438334 109.06501 63.641616 109.531316 C 62.855557 109.994958 62.165423 110.229443 61.565886 110.229443 C 59.663356 110.229443 58.328387 109.843075 57.55565 109.073003 C 56.798902 108.31359 56.367235 107.335679 56.260651 106.139269 C 56.154066 104.94286 56.100774 103.719805 56.100774 102.470104 C 56.100774 100.660835 56.505795 98.792944 57.315836 96.863768 C 58.141864 94.934591 59.19172 93.026731 60.468067 91.137524 C 61.744415 89.26164 63.03675 87.481681 64.339743 85.79232 C 65.65606 84.102958 66.799177 82.632094 67.769094 81.382393 C 68.155463 80.945397 68.520514 80.559029 68.866913 80.225952 C 69.226635 79.906199 69.546388 79.501179 69.826172 79.008226 C 70.862705 77.705233 71.707386 76.820583 72.35755 76.356941 C 73.010379 75.890635 73.521984 75.517589 73.895029 75.237806 C 74.281397 74.974009 74.593157 74.526355 74.832971 73.902837 C 75.083445 73.276654 75.349905 72.14686 75.629689 70.51079 C 75.789566 69.207797 76.016058 67.425174 76.309164 65.165586 C 76.61293 62.903333 76.887385 60.537161 77.127199 58.06174 C 77.377672 55.57566 77.53222 53.241463 77.585512 51.061813 C 77.638804 48.879499 77.524226 47.216783 77.247107 46.073666 L 73.735153 51.879848 C 72.592036 53.67313 71.640771 55.242584 70.881357 56.585547 C 70.124608 57.917851 69.386512 59.180875 68.667068 60.377284 C 67.963611 61.573694 67.158899 62.844712 66.252932 64.187674 C 65.362953 65.517314 64.238488 67.078775 62.882203 68.874721 C 61.84567 70.350914 60.468067 71.947014 58.75206 73.663022 C 57.038716 75.37903 55.128192 77.020429 53.028481 78.589883 C 50.926105 80.17266 48.81307 81.470325 46.684048 82.480211 C 44.571013 83.490098 42.588545 83.996373 40.739307 83.996373 C 38.823453 83.996373 37.102116 83.871137 35.572631 83.617999 C 34.056469 83.378184 32.588269 82.52551 31.165368 81.06264 C 28.503425 78.336745 26.656851 75.197836 25.617654 71.648578 C 24.581121 68.109978 24.061522 64.21965 24.061522 59.977593 Z M 101.598963 67.318589 C 100.509138 67.318589 99.539221 66.966861 98.686546 66.26074 C 97.849859 65.557283 97.210353 64.824516 96.773357 64.067767 C 95.800775 62.205206 95.243872 60.012233 95.097319 57.48352 C 94.964088 54.944148 95.115971 52.644591 95.555631 50.582184 C 95.662215 49.982647 95.808769 49.265867 95.995292 48.426516 C 96.195137 47.576505 96.48025 46.825086 96.853295 46.172257 C 97.236999 45.508769 97.703306 45.175693 98.24955 45.175693 C 99.499252 45.175693 100.109447 45.602031 100.082801 46.452041 C 100.056155 47.291392 99.824334 48.599715 99.384673 50.382338 C 98.961001 52.151638 98.747832 54.41922 98.747832 57.185083 C 98.747832 58.008447 98.854416 58.994353 99.067585 60.13747 C 99.278089 61.280587 99.619159 62.293138 100.082801 63.169794 C 100.549107 64.033127 101.135321 64.467458 101.838778 64.467458 C 102.718099 64.467458 103.714662 64.086419 104.831133 63.32967 C 105.947604 62.556934 106.978807 61.701595 107.924743 60.755659 C 108.881338 59.799064 109.552819 59.074291 109.939187 58.581338 C 110.045772 58.474754 110.344208 58.109703 110.83716 57.48352 C 111.327448 56.860001 111.913662 56.15388 112.590473 55.370485 C 113.269948 54.571103 113.9361 53.872975 114.586265 53.276103 C 115.239094 52.676566 115.756028 52.37813 116.142396 52.37813 C 116.528764 52.37813 116.720616 52.703212 116.720616 53.356041 C 116.720616 53.739745 116.462149 54.325959 115.94255 55.109353 C 115.425616 55.895413 114.804762 56.726771 114.087983 57.603427 C 113.381862 58.469425 112.691728 59.287459 112.012253 60.057531 C 111.335442 60.816945 110.829167 61.360525 110.496091 61.693601 C 109.845926 62.34643 109.06786 63.124496 108.161894 64.027798 C 107.271914 64.917777 106.28068 65.690514 105.190855 66.340678 C 104.10103 66.993507 102.904621 67.318589 101.598963 67.318589 Z M 98.987647 34.882311 C 98.987647 33.965686 99.232791 33.166303 99.725743 32.489493 C 100.216031 31.796694 100.762276 31.450295 101.361813 31.450295 C 102.011977 31.450295 102.558222 31.86331 102.995218 32.689338 C 103.754631 34.2055 103.847893 35.388586 103.275002 36.238597 C 102.704776 37.077948 102.006648 37.496292 101.18062 37.496292 C 100.650362 37.496292 100.149416 37.283123 99.685774 36.856786 C 99.219468 36.41979 98.987647 35.758967 98.987647 34.882311 Z M 113.445812 58.741215 C 113.445812 57.598098 113.717602 56.180526 114.263847 54.491164 C 114.810092 52.804467 115.56684 51.128428 116.536758 49.465713 C 117.522663 47.802997 118.652457 46.433388 119.928804 45.356887 C 121.218475 44.264397 122.569431 43.720817 123.979009 43.720817 C 125.295326 43.720817 126.358505 44.099191 127.17121 44.85594 C 127.994574 45.615354 128.487527 46.393419 128.647403 47.190137 C 128.80728 47.976197 128.532825 48.367894 127.829368 48.367894 C 127.283124 48.367894 126.726221 48.056135 126.15333 47.429952 C 125.580439 46.806434 124.916951 46.49201 124.157538 46.49201 C 123.560666 46.49201 122.835892 46.846403 121.983218 47.549859 C 121.14653 48.255981 120.120656 49.644242 118.910924 51.719972 C 118.367344 52.596628 117.861068 53.726422 117.394762 55.109353 C 116.944443 56.49495 116.717951 57.869888 116.717951 59.239497 C 116.824536 59.132912 116.864505 59.092943 116.837859 59.119589 C 116.811213 59.146235 116.904474 59.047645 117.117643 58.821153 L 117.775801 57.843242 C 118.212797 57.193077 118.719072 56.348396 119.291963 55.309199 C 119.862189 54.272666 120.448403 53.22814 121.045275 52.178284 C 121.644812 51.115105 122.191057 50.217132 122.681345 49.484365 C 123.174298 48.740939 123.552672 48.367894 123.819133 48.367894 C 124.802373 48.367894 125.375264 48.727616 125.535141 49.444396 C 125.695017 50.150517 125.761632 51.021844 125.734986 52.058377 C 125.70834 53.081586 125.806931 54.11279 126.033422 55.149323 C 126.353175 56.625516 126.851457 57.704682 127.528268 58.381493 C 128.221066 59.060968 128.999132 59.399373 129.862465 59.399373 C 131.39195 59.399373 133.081312 58.474754 134.93055 56.625516 C 135.700622 55.922059 136.246866 55.335845 136.566619 54.872203 C 136.899696 54.405897 137.336691 53.872975 137.882936 53.276103 C 138.255981 52.729858 138.74094 52.458068 139.340477 52.458068 C 139.937349 52.458068 140.195816 52.961679 140.118542 53.97423 C 140.038604 54.970794 138.967432 56.481627 136.905025 58.5014 L 134.45092 60.457223 C 132.868143 61.547047 131.338658 62.093292 129.862465 62.093292 C 128.506179 62.093292 127.323093 61.688272 126.313206 60.875566 C 125.300655 60.052202 124.525254 59.039651 123.979009 57.843242 C 123.432765 56.646833 123.160974 55.477069 123.160974 54.331288 C 122.787929 54.611072 122.356263 55.215938 121.86331 56.148551 C 121.373022 57.065176 120.840101 58.05641 120.26721 59.119589 C 119.696984 60.185433 119.11077 61.107387 118.513897 61.893447 C 117.91436 62.676841 117.314824 63.071203 116.717951 63.071203 C 115.188466 63.071203 114.255853 62.716811 113.925442 62.013354 C 113.605689 61.307233 113.445812 60.217408 113.445812 58.741215 Z M 113.445812 58.741215 " stroke="#122620" stroke-width="6.128468" stroke-opacity="1" stroke-miterlimit="4"/><g fill="#fffef9" fill-opacity="1"><g transform="translate(104.599089, 189.376706)"><g><path d="M 53.78125 59.53125 C 55.78125 59.53125 57.695312 58.367188 59.53125 56.046875 C 61.363281 53.734375 63.097656 50.78125 64.734375 47.1875 C 66.378906 43.59375 67.816406 39.820312 69.046875 35.875 C 70.285156 31.925781 71.285156 28.273438 72.046875 24.921875 C 72.804688 21.566406 73.226562 19.007812 73.3125 17.25 C 72.507812 17.882812 71.804688 18.617188 71.203125 19.453125 C 70.609375 20.296875 69.910156 21.078125 69.109375 21.796875 C 67.035156 23.878906 64.835938 26.414062 62.515625 29.40625 C 60.203125 32.394531 58.085938 35.46875 56.171875 38.625 C 54.253906 41.78125 52.859375 44.675781 51.984375 47.3125 C 51.742188 48.113281 51.460938 49.191406 51.140625 50.546875 C 50.828125 51.898438 50.628906 53.253906 50.546875 54.609375 C 50.460938 55.972656 50.660156 57.132812 51.140625 58.09375 C 51.617188 59.050781 52.5 59.53125 53.78125 59.53125 Z M 0 -10.296875 C 0 -15.410156 0.4375 -20.703125 1.3125 -26.171875 C 2.195312 -31.640625 3.414062 -37.03125 4.96875 -42.34375 C 6.53125 -47.65625 8.347656 -52.585938 10.421875 -57.140625 C 11.773438 -59.929688 13.410156 -62.90625 15.328125 -66.0625 C 17.242188 -69.21875 19.441406 -72.191406 21.921875 -74.984375 C 24.398438 -77.773438 27.113281 -80.050781 30.0625 -81.8125 C 33.019531 -83.570312 36.253906 -84.453125 39.765625 -84.453125 C 42.878906 -84.453125 45.8125 -83.507812 48.5625 -81.625 C 51.320312 -79.75 53.703125 -76.816406 55.703125 -72.828125 C 58.015625 -68.191406 59.429688 -62.921875 59.953125 -57.015625 C 60.472656 -51.109375 60.410156 -45.160156 59.765625 -39.171875 C 59.128906 -33.179688 58.171875 -27.628906 56.890625 -22.515625 C 56.335938 -20.203125 55.898438 -18.625 55.578125 -17.78125 C 55.253906 -16.945312 54.734375 -16.53125 54.015625 -16.53125 C 53.773438 -16.53125 53.472656 -16.585938 53.109375 -16.703125 C 52.753906 -16.828125 52.335938 -16.929688 51.859375 -17.015625 C 51.546875 -18.691406 51.46875 -20.046875 51.625 -21.078125 C 51.78125 -22.117188 51.976562 -23.519531 52.21875 -25.28125 C 52.9375 -28.625 53.472656 -31.550781 53.828125 -34.0625 C 54.191406 -36.582031 54.414062 -39.117188 54.5 -41.671875 C 54.582031 -44.234375 54.625 -47.234375 54.625 -50.671875 C 54.625 -53.222656 54.34375 -56.054688 53.78125 -59.171875 C 53.21875 -62.285156 52.335938 -65.28125 51.140625 -68.15625 C 49.941406 -71.03125 48.425781 -73.40625 46.59375 -75.28125 C 44.757812 -77.15625 42.523438 -78.09375 39.890625 -78.09375 C 36.929688 -78.09375 34.15625 -77.132812 31.5625 -75.21875 C 28.96875 -73.300781 26.53125 -70.828125 24.25 -67.796875 C 21.976562 -64.765625 19.941406 -61.507812 18.140625 -58.03125 C 16.347656 -54.5625 14.8125 -51.207031 13.53125 -47.96875 C 12.257812 -44.738281 11.300781 -42.003906 10.65625 -39.765625 C 9.695312 -36.566406 8.78125 -32.769531 7.90625 -28.375 C 7.03125 -23.988281 6.410156 -19.421875 6.046875 -14.671875 C 5.691406 -9.921875 5.734375 -5.328125 6.171875 -0.890625 C 6.609375 3.535156 7.664062 7.46875 9.34375 10.90625 C 9.90625 12.019531 10.5625 13.195312 11.3125 14.4375 C 12.070312 15.675781 12.972656 16.691406 14.015625 17.484375 C 15.367188 18.679688 16.820312 19.539062 18.375 20.0625 C 19.9375 20.582031 21.519531 20.84375 23.125 20.84375 C 26.070312 20.84375 29.039062 20.179688 32.03125 18.859375 C 35.03125 17.546875 37.847656 15.929688 40.484375 14.015625 C 43.117188 12.097656 45.316406 10.257812 47.078125 8.5 L 53.546875 1.4375 C 56.492188 -2.3125 58.882812 -5.785156 60.71875 -8.984375 C 62.5625 -12.179688 64.679688 -15.851562 67.078125 -20 C 67.710938 -21.125 68.507812 -22.582031 69.46875 -24.375 C 70.425781 -26.175781 71.460938 -27.972656 72.578125 -29.765625 C 73.703125 -31.554688 74.820312 -33.070312 75.9375 -34.3125 C 77.0625 -35.550781 78.101562 -36.171875 79.0625 -36.171875 C 80.175781 -36.171875 81.007812 -35.59375 81.5625 -34.4375 C 82.125 -33.28125 82.503906 -31.863281 82.703125 -30.1875 C 82.910156 -28.507812 83.015625 -26.832031 83.015625 -25.15625 C 83.015625 -23.476562 83.015625 -22.117188 83.015625 -21.078125 C 83.015625 -15.734375 82.65625 -10.785156 81.9375 -6.234375 C 81.21875 -1.679688 80.816406 1.789062 80.734375 4.1875 C 81.128906 3.945312 81.382812 3.707031 81.5 3.46875 C 81.625 3.226562 81.96875 2.953125 82.53125 2.640625 C 82.925781 2.234375 83.242188 1.96875 83.484375 1.84375 C 83.722656 1.726562 84.046875 1.515625 84.453125 1.203125 L 101.09375 -15.09375 C 101.570312 -15.726562 102.207031 -16.503906 103 -17.421875 C 103.800781 -18.347656 104.640625 -19.1875 105.515625 -19.9375 C 106.398438 -20.695312 107.242188 -21.078125 108.046875 -21.078125 C 109.242188 -21.078125 109.703125 -20.65625 109.421875 -19.8125 C 109.140625 -18.976562 108.539062 -17.984375 107.625 -16.828125 C 106.707031 -15.671875 105.75 -14.59375 104.75 -13.59375 C 103.75 -12.59375 103.128906 -11.9375 102.890625 -11.625 C 102.085938 -10.820312 101.382812 -10.039062 100.78125 -9.28125 C 100.1875 -8.519531 99.453125 -7.742188 98.578125 -6.953125 L 80.609375 10.0625 C 79.816406 10.78125 79.335938 11.773438 79.171875 13.046875 C 79.015625 14.328125 78.773438 15.488281 78.453125 16.53125 C 77.898438 19.644531 77.125 23.273438 76.125 27.421875 C 75.125 31.578125 73.90625 35.789062 72.46875 40.0625 C 71.03125 44.332031 69.332031 48.285156 67.375 51.921875 C 65.414062 55.554688 63.160156 58.453125 60.609375 60.609375 C 60.046875 61.085938 59.1875 61.664062 58.03125 62.34375 C 56.875 63.019531 55.859375 63.359375 54.984375 63.359375 C 52.179688 63.359375 50.222656 62.800781 49.109375 61.6875 C 47.992188 60.570312 47.351562 59.132812 47.1875 57.375 C 47.03125 55.613281 46.953125 53.816406 46.953125 51.984375 C 46.953125 49.347656 47.550781 46.613281 48.75 43.78125 C 49.945312 40.945312 51.484375 38.148438 53.359375 35.390625 C 55.234375 32.640625 57.128906 30.023438 59.046875 27.546875 C 60.960938 25.078125 62.640625 22.921875 64.078125 21.078125 C 64.640625 20.441406 65.179688 19.882812 65.703125 19.40625 C 66.222656 18.925781 66.679688 18.328125 67.078125 17.609375 C 68.597656 15.691406 69.835938 14.394531 70.796875 13.71875 C 71.753906 13.039062 72.507812 12.5 73.0625 12.09375 C 73.625 11.695312 74.082031 11.039062 74.4375 10.125 C 74.800781 9.207031 75.179688 7.550781 75.578125 5.15625 C 75.816406 3.238281 76.15625 0.625 76.59375 -2.6875 C 77.039062 -6.007812 77.441406 -9.484375 77.796875 -13.109375 C 78.160156 -16.742188 78.378906 -20.160156 78.453125 -23.359375 C 78.535156 -26.554688 78.378906 -28.988281 77.984375 -30.65625 L 72.828125 -22.15625 C 71.148438 -19.519531 69.75 -17.222656 68.625 -15.265625 C 67.507812 -13.316406 66.429688 -11.460938 65.390625 -9.703125 C 64.359375 -7.941406 63.179688 -6.082031 61.859375 -4.125 C 60.546875 -2.175781 58.890625 0.113281 56.890625 2.75 C 55.378906 4.90625 53.363281 7.238281 50.84375 9.75 C 48.332031 12.269531 45.535156 14.6875 42.453125 17 C 39.378906 19.320312 36.285156 21.222656 33.171875 22.703125 C 30.066406 24.179688 27.15625 24.921875 24.4375 24.921875 C 21.644531 24.921875 19.128906 24.738281 16.890625 24.375 C 14.648438 24.019531 12.492188 22.765625 10.421875 20.609375 C 6.503906 16.609375 3.785156 12.015625 2.265625 6.828125 C 0.753906 1.640625 0 -4.066406 0 -10.296875 Z M 0 -10.296875 "/></g></g></g><g fill="#fffef9" fill-opacity="1"><g transform="translate(208.324108, 189.376706)"><g><path d="M 9.9375 0.484375 C 8.34375 0.484375 6.925781 -0.0351562 5.6875 -1.078125 C 4.445312 -2.117188 3.507812 -3.195312 2.875 -4.3125 C 1.4375 -7.03125 0.617188 -10.242188 0.421875 -13.953125 C 0.222656 -17.671875 0.441406 -21.046875 1.078125 -24.078125 C 1.234375 -24.953125 1.453125 -26.007812 1.734375 -27.25 C 2.015625 -28.488281 2.429688 -29.585938 2.984375 -30.546875 C 3.546875 -31.503906 4.226562 -31.984375 5.03125 -31.984375 C 6.863281 -31.984375 7.757812 -31.363281 7.71875 -30.125 C 7.6875 -28.882812 7.347656 -26.96875 6.703125 -24.375 C 6.066406 -21.78125 5.75 -18.445312 5.75 -14.375 C 5.75 -13.175781 5.90625 -11.738281 6.21875 -10.0625 C 6.539062 -8.382812 7.039062 -6.90625 7.71875 -5.625 C 8.40625 -4.351562 9.265625 -3.71875 10.296875 -3.71875 C 11.578125 -3.71875 13.035156 -4.273438 14.671875 -5.390625 C 16.304688 -6.503906 17.820312 -7.757812 19.21875 -9.15625 C 20.625 -10.5625 21.601562 -11.625 22.15625 -12.34375 C 22.320312 -12.5 22.765625 -13.035156 23.484375 -13.953125 C 24.203125 -14.867188 25.054688 -15.90625 26.046875 -17.0625 C 27.046875 -18.226562 28.023438 -19.25 28.984375 -20.125 C 29.941406 -21 30.703125 -21.4375 31.265625 -21.4375 C 31.816406 -21.4375 32.09375 -20.957031 32.09375 -20 C 32.09375 -19.445312 31.710938 -18.585938 30.953125 -17.421875 C 30.203125 -16.265625 29.304688 -15.046875 28.265625 -13.765625 C 27.234375 -12.492188 26.21875 -11.296875 25.21875 -10.171875 C 24.21875 -9.054688 23.476562 -8.257812 23 -7.78125 C 22.039062 -6.820312 20.898438 -5.679688 19.578125 -4.359375 C 18.265625 -3.046875 16.804688 -1.910156 15.203125 -0.953125 C 13.609375 0.00390625 11.851562 0.484375 9.9375 0.484375 Z M 6.109375 -47.078125 C 6.109375 -48.429688 6.46875 -49.609375 7.1875 -50.609375 C 7.90625 -51.609375 8.703125 -52.109375 9.578125 -52.109375 C 10.535156 -52.109375 11.335938 -51.507812 11.984375 -50.3125 C 13.097656 -48.070312 13.234375 -46.332031 12.390625 -45.09375 C 11.554688 -43.851562 10.539062 -43.234375 9.34375 -43.234375 C 8.539062 -43.234375 7.800781 -43.550781 7.125 -44.1875 C 6.445312 -44.832031 6.109375 -45.796875 6.109375 -47.078125 Z M 6.109375 -47.078125 "/></g></g></g><g fill="#fffef9" fill-opacity="1"><g transform="translate(235.632773, 189.376706)"><g><path d="M 0 -12.09375 C 0 -13.769531 0.394531 -15.847656 1.1875 -18.328125 C 1.988281 -20.804688 3.109375 -23.257812 4.546875 -25.6875 C 5.984375 -28.125 7.640625 -30.140625 9.515625 -31.734375 C 11.398438 -33.335938 13.378906 -34.140625 15.453125 -34.140625 C 17.367188 -34.140625 18.925781 -33.578125 20.125 -32.453125 C 21.320312 -31.335938 22.039062 -30.203125 22.28125 -29.046875 C 22.519531 -27.890625 22.117188 -27.3125 21.078125 -27.3125 C 20.285156 -27.3125 19.46875 -27.769531 18.625 -28.6875 C 17.789062 -29.601562 16.8125 -30.0625 15.6875 -30.0625 C 14.8125 -30.0625 13.753906 -29.539062 12.515625 -28.5 C 11.273438 -27.46875 9.78125 -25.4375 8.03125 -22.40625 C 7.226562 -21.125 6.488281 -19.460938 5.8125 -17.421875 C 5.132812 -15.390625 4.796875 -13.375 4.796875 -11.375 C 4.953125 -11.539062 5.007812 -11.601562 4.96875 -11.5625 C 4.925781 -11.519531 5.066406 -11.660156 5.390625 -11.984375 L 6.34375 -13.421875 C 6.988281 -14.378906 7.726562 -15.613281 8.5625 -17.125 C 9.40625 -18.644531 10.265625 -20.179688 11.140625 -21.734375 C 12.015625 -23.296875 12.8125 -24.613281 13.53125 -25.6875 C 14.25 -26.769531 14.8125 -27.3125 15.21875 -27.3125 C 16.65625 -27.3125 17.492188 -26.789062 17.734375 -25.75 C 17.972656 -24.71875 18.070312 -23.441406 18.03125 -21.921875 C 17.988281 -20.398438 18.128906 -18.882812 18.453125 -17.375 C 18.929688 -15.21875 19.664062 -13.640625 20.65625 -12.640625 C 21.65625 -11.640625 22.796875 -11.140625 24.078125 -11.140625 C 26.316406 -11.140625 28.789062 -12.5 31.5 -15.21875 C 32.613281 -16.25 33.410156 -17.101562 33.890625 -17.78125 C 34.367188 -18.46875 35.007812 -19.25 35.8125 -20.125 C 36.375 -20.925781 37.09375 -21.328125 37.96875 -21.328125 C 38.84375 -21.328125 39.21875 -20.585938 39.09375 -19.109375 C 38.976562 -17.628906 37.40625 -15.410156 34.375 -12.453125 L 30.78125 -9.578125 C 28.46875 -7.984375 26.234375 -7.1875 24.078125 -7.1875 C 22.078125 -7.1875 20.335938 -7.785156 18.859375 -8.984375 C 17.390625 -10.179688 16.253906 -11.65625 15.453125 -13.40625 C 14.648438 -15.164062 14.25 -16.882812 14.25 -18.5625 C 13.695312 -18.164062 13.0625 -17.285156 12.34375 -15.921875 C 11.625 -14.566406 10.84375 -13.109375 10 -11.546875 C 9.164062 -9.992188 8.304688 -8.640625 7.421875 -7.484375 C 6.546875 -6.328125 5.671875 -5.75 4.796875 -5.75 C 2.554688 -5.75 1.195312 -6.265625 0.71875 -7.296875 C 0.238281 -8.335938 0 -9.9375 0 -12.09375 Z M 0 -12.09375 "/></g></g></g><path fill="#122620" d="M 263.1875 250.460938 C 262 251.851562 260.773438 253.207031 259.511719 254.527344 C 258.25 255.851562 256.953125 257.140625 255.621094 258.394531 C 254.289062 259.644531 252.925781 260.863281 251.53125 262.042969 C 250.132812 263.222656 248.707031 264.363281 247.25 265.464844 C 245.789062 266.570312 244.304688 267.632812 242.789062 268.65625 C 241.273438 269.679688 239.734375 270.660156 238.164062 271.601562 C 236.597656 272.542969 235.003906 273.4375 233.390625 274.292969 C 231.773438 275.148438 230.136719 275.957031 228.476562 276.726562 C 226.816406 277.492188 225.136719 278.214844 223.4375 278.890625 C 221.738281 279.566406 220.023438 280.195312 218.292969 280.78125 C 216.558594 281.363281 214.8125 281.902344 213.050781 282.390625 C 211.289062 282.882812 209.515625 283.324219 207.730469 283.71875 C 205.945312 284.113281 204.152344 284.460938 202.347656 284.757812 C 200.546875 285.058594 198.734375 285.308594 196.917969 285.507812 C 195.101562 285.707031 193.28125 285.859375 191.453125 285.964844 C 189.628906 286.066406 187.804688 286.121094 185.972656 286.125 C 184.144531 286.128906 182.320312 286.085938 180.492188 285.992188 C 178.667969 285.898438 176.847656 285.757812 175.027344 285.566406 C 173.210938 285.375 171.398438 285.132812 169.59375 284.84375 C 167.789062 284.558594 165.992188 284.21875 164.203125 283.835938 C 162.417969 283.449219 160.640625 283.015625 158.878906 282.535156 C 157.113281 282.054688 155.363281 281.527344 153.628906 280.953125 C 151.894531 280.375 150.175781 279.753906 148.472656 279.089844 C 146.769531 278.421875 145.089844 277.707031 143.425781 276.949219 C 141.761719 276.191406 140.117188 275.390625 138.5 274.542969 C 136.878906 273.699219 135.28125 272.808594 133.707031 271.878906 C 132.136719 270.945312 130.589844 269.972656 129.066406 268.957031 C 127.546875 267.941406 126.054688 266.886719 124.59375 265.792969 C 123.128906 264.695312 121.695312 263.5625 120.292969 262.390625 C 118.890625 261.21875 117.519531 260.007812 116.183594 258.761719 C 114.84375 257.515625 113.539062 256.234375 112.273438 254.917969 C 111.003906 253.601562 109.769531 252.253906 108.574219 250.871094 L 125.769531 235.992188 C 126.699219 237.066406 127.65625 238.117188 128.640625 239.136719 C 129.628906 240.160156 130.640625 241.15625 131.679688 242.125 C 132.71875 243.09375 133.785156 244.03125 134.875 244.945312 C 135.964844 245.855469 137.078125 246.734375 138.214844 247.585938 C 139.351562 248.4375 140.511719 249.257812 141.691406 250.046875 C 142.875 250.835938 144.078125 251.59375 145.296875 252.316406 C 146.519531 253.039062 147.761719 253.730469 149.019531 254.390625 C 150.28125 255.046875 151.554688 255.667969 152.847656 256.257812 C 154.140625 256.847656 155.449219 257.402344 156.773438 257.917969 C 158.09375 258.4375 159.429688 258.921875 160.78125 259.367188 C 162.128906 259.816406 163.488281 260.226562 164.859375 260.597656 C 166.230469 260.972656 167.609375 261.308594 168.996094 261.609375 C 170.386719 261.90625 171.78125 262.167969 173.183594 262.394531 C 174.585938 262.617188 175.996094 262.804688 177.40625 262.953125 C 178.820312 263.101562 180.238281 263.210938 181.65625 263.285156 C 183.074219 263.359375 184.492188 263.390625 185.914062 263.386719 C 187.335938 263.382812 188.753906 263.34375 190.171875 263.261719 C 191.589844 263.183594 193.007812 263.0625 194.417969 262.910156 C 195.832031 262.753906 197.238281 262.558594 198.640625 262.328125 C 200.039062 262.09375 201.433594 261.824219 202.820312 261.519531 C 204.210938 261.210938 205.585938 260.867188 206.957031 260.488281 C 208.324219 260.105469 209.679688 259.6875 211.027344 259.234375 C 212.375 258.78125 213.707031 258.289062 215.027344 257.765625 C 216.347656 257.238281 217.652344 256.679688 218.941406 256.082031 C 220.230469 255.488281 221.503906 254.859375 222.757812 254.195312 C 224.015625 253.53125 225.253906 252.832031 226.46875 252.101562 C 227.6875 251.371094 228.886719 250.609375 230.0625 249.8125 C 231.242188 249.019531 232.398438 248.191406 233.53125 247.335938 C 234.664062 246.476562 235.769531 245.589844 236.855469 244.671875 C 237.941406 243.757812 239 242.8125 240.035156 241.835938 C 241.070312 240.863281 242.078125 239.863281 243.058594 238.835938 C 244.039062 237.808594 244.992188 236.753906 245.914062 235.675781 Z M 263.1875 250.460938 " fill-opacity="1" fill-rule="nonzero"/><g fill="#fffef9" fill-opacity="1"><g transform="translate(115.965964, 250.172944)"><g><path d="M 12.453125 0.671875 L 11.40625 -0.3125 C 11.800781 -0.757812 12.003906 -1.203125 12.015625 -1.640625 C 12.035156 -2.085938 11.941406 -2.503906 11.734375 -2.890625 C 11.523438 -3.273438 11.265625 -3.613281 10.953125 -3.90625 C 10.773438 -4.070312 10.5625 -4.242188 10.3125 -4.421875 C 10.0625 -4.597656 9.789062 -4.734375 9.5 -4.828125 C 9.207031 -4.921875 8.90625 -4.929688 8.59375 -4.859375 C 8.28125 -4.785156 7.976562 -4.59375 7.6875 -4.28125 C 7.46875 -4.050781 7.34375 -3.8125 7.3125 -3.5625 C 7.28125 -3.320312 7.359375 -3.007812 7.546875 -2.625 C 7.742188 -2.238281 8.066406 -1.707031 8.515625 -1.03125 C 9.003906 -0.289062 9.382812 0.34375 9.65625 0.875 C 9.9375 1.414062 10.101562 1.890625 10.15625 2.296875 C 10.207031 2.703125 10.160156 3.078125 10.015625 3.421875 C 9.867188 3.765625 9.628906 4.113281 9.296875 4.46875 C 8.835938 4.945312 8.351562 5.253906 7.84375 5.390625 C 7.34375 5.535156 6.835938 5.546875 6.328125 5.421875 C 5.828125 5.304688 5.351562 5.109375 4.90625 4.828125 C 4.457031 4.554688 4.054688 4.25 3.703125 3.90625 C 3.003906 3.25 2.523438 2.617188 2.265625 2.015625 C 2.015625 1.421875 1.90625 0.863281 1.9375 0.34375 C 1.96875 -0.175781 2.097656 -0.644531 2.328125 -1.0625 C 2.554688 -1.488281 2.8125 -1.847656 3.09375 -2.140625 L 4.140625 -1.140625 C 3.785156 -0.773438 3.554688 -0.40625 3.453125 -0.03125 C 3.359375 0.34375 3.347656 0.707031 3.421875 1.0625 C 3.503906 1.425781 3.65625 1.769531 3.875 2.09375 C 4.09375 2.414062 4.332031 2.695312 4.59375 2.9375 C 4.789062 3.125 5.023438 3.316406 5.296875 3.515625 C 5.578125 3.710938 5.878906 3.867188 6.203125 3.984375 C 6.523438 4.097656 6.847656 4.132812 7.171875 4.09375 C 7.492188 4.0625 7.796875 3.894531 8.078125 3.59375 C 8.285156 3.375 8.4375 3.160156 8.53125 2.953125 C 8.625 2.753906 8.632812 2.507812 8.5625 2.21875 C 8.488281 1.925781 8.316406 1.535156 8.046875 1.046875 C 7.785156 0.566406 7.390625 -0.0546875 6.859375 -0.828125 C 6.460938 -1.390625 6.160156 -1.910156 5.953125 -2.390625 C 5.753906 -2.878906 5.679688 -3.351562 5.734375 -3.8125 C 5.785156 -4.269531 6.023438 -4.722656 6.453125 -5.171875 C 6.859375 -5.597656 7.34375 -5.90625 7.90625 -6.09375 C 8.476562 -6.289062 9.085938 -6.316406 9.734375 -6.171875 C 10.390625 -6.035156 11.054688 -5.648438 11.734375 -5.015625 C 12.304688 -4.472656 12.726562 -3.957031 13 -3.46875 C 13.28125 -2.976562 13.4375 -2.523438 13.46875 -2.109375 C 13.5 -1.691406 13.460938 -1.304688 13.359375 -0.953125 C 13.265625 -0.609375 13.128906 -0.296875 12.953125 -0.015625 C 12.785156 0.265625 12.617188 0.492188 12.453125 0.671875 Z M 12.453125 0.671875 "/></g></g></g><g fill="#fffef9" fill-opacity="1"><g transform="translate(134.960156, 265.771203)"><g><path d="M 6.359375 -9.53125 L 8.3125 -8.5 L 6.65625 1.53125 L 6.6875 1.546875 L 14.0625 -5.453125 L 16 -4.421875 L 10.65625 5.65625 L 9.328125 4.953125 L 12.484375 -1 C 12.535156 -1.09375 12.640625 -1.28125 12.796875 -1.5625 C 12.953125 -1.84375 13.128906 -2.15625 13.328125 -2.5 C 13.523438 -2.851562 13.703125 -3.1875 13.859375 -3.5 L 13.84375 -3.5 L 6.515625 3.453125 L 5.171875 2.75 L 6.828125 -7.21875 L 6.796875 -7.25 C 6.640625 -6.9375 6.46875 -6.601562 6.28125 -6.25 C 6.101562 -5.894531 5.941406 -5.570312 5.796875 -5.28125 C 5.648438 -4.988281 5.550781 -4.796875 5.5 -4.703125 L 2.34375 1.25 L 1.015625 0.546875 Z M 6.359375 -9.53125 "/></g></g></g><g fill="#fffef9" fill-opacity="1"><g transform="translate(159.939118, 276.70081)"><g><path d="M 12.140625 -5.515625 L 10.6875 -5.828125 C 10.6875 -6.347656 10.601562 -6.785156 10.4375 -7.140625 C 10.269531 -7.492188 10.046875 -7.78125 9.765625 -8 C 9.492188 -8.226562 9.207031 -8.40625 8.90625 -8.53125 C 8.613281 -8.664062 8.332031 -8.765625 8.0625 -8.828125 C 7.40625 -8.960938 6.757812 -8.925781 6.125 -8.71875 C 5.5 -8.507812 4.953125 -8.113281 4.484375 -7.53125 C 4.023438 -6.945312 3.691406 -6.171875 3.484375 -5.203125 C 3.285156 -4.328125 3.226562 -3.515625 3.3125 -2.765625 C 3.394531 -2.015625 3.65625 -1.375 4.09375 -0.84375 C 4.53125 -0.3125 5.210938 0.0507812 6.140625 0.25 C 6.390625 0.300781 6.675781 0.320312 7 0.3125 C 7.332031 0.300781 7.675781 0.21875 8.03125 0.0625 C 8.394531 -0.0820312 8.742188 -0.328125 9.078125 -0.671875 C 9.421875 -1.015625 9.726562 -1.5 10 -2.125 L 11.4375 -1.8125 C 11.132812 -1 10.769531 -0.351562 10.34375 0.125 C 9.914062 0.601562 9.460938 0.953125 8.984375 1.171875 C 8.515625 1.398438 8.054688 1.539062 7.609375 1.59375 C 7.160156 1.644531 6.757812 1.65625 6.40625 1.625 C 6.0625 1.59375 5.804688 1.5625 5.640625 1.53125 C 5.003906 1.394531 4.410156 1.15625 3.859375 0.8125 C 3.316406 0.46875 2.859375 0.0078125 2.484375 -0.5625 C 2.117188 -1.144531 1.875 -1.835938 1.75 -2.640625 C 1.625 -3.453125 1.675781 -4.398438 1.90625 -5.484375 C 2.15625 -6.617188 2.582031 -7.578125 3.1875 -8.359375 C 3.789062 -9.140625 4.53125 -9.691406 5.40625 -10.015625 C 6.289062 -10.347656 7.269531 -10.398438 8.34375 -10.171875 C 9.300781 -9.960938 10.066406 -9.613281 10.640625 -9.125 C 11.222656 -8.632812 11.632812 -8.070312 11.875 -7.4375 C 12.113281 -6.800781 12.203125 -6.160156 12.140625 -5.515625 Z M 12.140625 -5.515625 "/></g></g></g><g fill="#fffef9" fill-opacity="1"><g transform="translate(185.149329, 280.254028)"><g><path d="M 2.125 -11.53125 L 2.359375 -6.8125 L 8.296875 -7.109375 L 8.0625 -11.828125 L 9.59375 -11.90625 L 10.171875 -0.515625 L 8.640625 -0.4375 L 8.375 -5.765625 L 2.4375 -5.46875 L 2.703125 -0.140625 L 1.15625 -0.0625 L 0.578125 -11.453125 Z M 2.125 -11.53125 "/></g></g></g><g fill="#fffef9" fill-opacity="1"><g transform="translate(210.03427, 277.030583)"><g><path d="M -0.46875 -11.71875 L 2.609375 -0.734375 L 1.109375 -0.3125 L -1.96875 -11.296875 Z M -0.46875 -11.71875 "/></g></g></g><g fill="#fffef9" fill-opacity="1"><g transform="translate(226.705143, 271.190608)"><g><path d="M 5.59375 -12.09375 L 4.296875 -11.390625 C 3.960938 -11.785156 3.613281 -12.0625 3.25 -12.21875 C 2.894531 -12.375 2.539062 -12.445312 2.1875 -12.4375 C 1.84375 -12.4375 1.507812 -12.382812 1.1875 -12.28125 C 0.875 -12.1875 0.597656 -12.070312 0.359375 -11.9375 C -0.234375 -11.625 -0.703125 -11.1875 -1.046875 -10.625 C -1.390625 -10.0625 -1.546875 -9.398438 -1.515625 -8.640625 C -1.484375 -7.890625 -1.226562 -7.078125 -0.75 -6.203125 C -0.320312 -5.410156 0.160156 -4.757812 0.703125 -4.25 C 1.253906 -3.738281 1.867188 -3.425781 2.546875 -3.3125 C 3.234375 -3.207031 3.992188 -3.378906 4.828125 -3.828125 C 5.046875 -3.941406 5.273438 -4.109375 5.515625 -4.328125 C 5.753906 -4.546875 5.957031 -4.832031 6.125 -5.1875 C 6.300781 -5.539062 6.40625 -5.957031 6.4375 -6.4375 C 6.46875 -6.914062 6.382812 -7.476562 6.1875 -8.125 L 7.484375 -8.828125 C 7.785156 -8.023438 7.925781 -7.300781 7.90625 -6.65625 C 7.894531 -6.007812 7.785156 -5.441406 7.578125 -4.953125 C 7.367188 -4.472656 7.109375 -4.066406 6.796875 -3.734375 C 6.492188 -3.398438 6.203125 -3.132812 5.921875 -2.9375 C 5.640625 -2.738281 5.421875 -2.597656 5.265625 -2.515625 C 4.691406 -2.203125 4.085938 -1.992188 3.453125 -1.890625 C 2.816406 -1.796875 2.171875 -1.847656 1.515625 -2.046875 C 0.859375 -2.242188 0.222656 -2.609375 -0.390625 -3.140625 C -1.015625 -3.671875 -1.59375 -4.421875 -2.125 -5.390625 C -2.675781 -6.421875 -2.976562 -7.429688 -3.03125 -8.421875 C -3.082031 -9.410156 -2.878906 -10.3125 -2.421875 -11.125 C -1.972656 -11.945312 -1.265625 -12.617188 -0.296875 -13.140625 C 0.566406 -13.609375 1.378906 -13.84375 2.140625 -13.84375 C 2.898438 -13.851562 3.570312 -13.695312 4.15625 -13.375 C 4.75 -13.050781 5.226562 -12.625 5.59375 -12.09375 Z M 5.59375 -12.09375 "/></g></g></g><g fill="#fffef9" fill-opacity="1"><g transform="translate(248.107829, 257.452258)"><g><path d="M -5.859375 -10.15625 L -2.0625 -6.125 L -1.84375 -13.953125 L -0.3125 -15.40625 L -0.59375 -8.796875 L 7.609375 -7.1875 L 6.171875 -5.828125 L -0.65625 -7.234375 L -0.78125 -4.765625 L 1.96875 -1.859375 L 0.84375 -0.796875 L -6.984375 -9.09375 Z M -5.859375 -10.15625 "/></g></g></g></svg>